solid Created by Gmsh
facet normal 0.353133 0.469664 0.809143
  outer loop
    vertex 21.39829114321451 22.17672063215994 32.79186176711166
    vertex 9.672813510006151 23.42752014161459 37.1831679502283
    vertex 15.25199471837641 15.25199471837844 39.49371233780353
  endloop
endfacet
facet normal 0.981203 0.155407 0.114409
  outer loop
    vertex 42.79754322151621 13.90576478308375 0
    vertex 41.72120366053554 11.92353062469577 11.92353062469577
    vertex 45 0 0
  endloop
endfacet
facet normal 0.981203 0.114409 0.155407
  outer loop
    vertex 45 0 0
    vertex 41.72120366053554 11.92353062469577 11.92353062469577
    vertex 42.79754322151621 8.514825165649752e-16 13.90576478308375
  endloop
endfacet
facet normal 0.472375 0.359552 0.804726
  outer loop
    vertex 15.25199471837641 15.25199471837844 39.49371233780353
    vertex 23.37120683107543 9.683068177916931 37.21592242469486
    vertex 21.39829114321451 22.17672063215994 32.79186176711166
  endloop
endfacet
facet normal 0.34101 0.568619 0.748588
  outer loop
    vertex 11.94368913087683 30.83207064643967 30.5242806565188
    vertex 9.672813510006151 23.42752014161459 37.1831679502283
    vertex 21.39829114321451 22.17672063215994 32.79186176711166
  endloop
endfacet
facet normal 0.378285 0.911053 0.163959
  outer loop
    vertex 15.25199476719022 39.49371230540932 15.25199475344659
    vertex 23.69659506674265 36.94728762447775 9.918130843911117
    vertex 13.90576470410504 42.79754324717794 0
  endloop
endfacet
facet normal 0.704144 0.0914433 0.704144
  outer loop
    vertex 36.40576469758573 1.619615991717348e-15 26.4503364209989
    vertex 30.6396580156825 12.14177524000511 30.63965813620025
    vertex 26.450336280694 2.229210166612374e-15 36.4057647995232
  endloop
endfacet
facet normal 0.705054 0.705054 0.0761474
  outer loop
    vertex 26.450336280694 36.4057647995232 0
    vertex 30.81019723794977 30.84029775781461 11.16278551115124
    vertex 36.40576469758573 26.4503364209989 0
  endloop
endfacet
facet normal 0.0884423 0.704336 0.704336
  outer loop
    vertex 3.848826149738525e-15 26.450336280694 36.4057647995232
    vertex 11.94368913087683 30.83207064643967 30.5242806565188
    vertex 3.848826152087852e-15 36.40576469758573 26.4503364209989
  endloop
endfacet
facet normal 0.164864 0.913071 0.37299
  outer loop
    vertex 3.472076232444992e-15 42.79754322151621 13.90576478308375
    vertex 10.04271353724887 37.11226780576389 23.38425716421241
    vertex 15.25199476719022 39.49371230540932 15.25199475344659
  endloop
endfacet
facet normal 0.55887 0.353825 0.749981
  outer loop
    vertex 21.39829114321451 22.17672063215994 32.79186176711166
    vertex 23.37120683107543 9.683068177916931 37.21592242469486
    vertex 30.6396580156825 12.14177524000511 30.63965813620025
  endloop
endfacet
facet normal 0.165202 0.370999 0.91382
  outer loop
    vertex 15.25199471837641 15.25199471837844 39.49371233780353
    vertex 9.672813510006151 23.42752014161459 37.1831679502283
    vertex 3.472076229180268e-15 13.90576470410504 42.79754324717794
  endloop
endfacet
facet normal 0.370051 0.165239 0.914198
  outer loop
    vertex 23.37120683107543 9.683068177916931 37.21592242469486
    vertex 8.922255259865313 8.583994542365371 43.26324535647375
    vertex 13.90576470410504 2.620593717451344e-15 42.79754324717794
  endloop
endfacet
facet normal 0.37001 0.165549 0.914159
  outer loop
    vertex 15.25199471837641 15.25199471837844 39.49371233780353
    vertex 8.922255259865313 8.583994542365371 43.26324535647375
    vertex 23.37120683107543 9.683068177916931 37.21592242469486
  endloop
endfacet
facet normal 0.36063 0.745864 0.56003
  outer loop
    vertex 22.54717370546817 32.39452491432164 21.61526575064112
    vertex 10.04271353724887 37.11226780576389 23.38425716421241
    vertex 11.94368913087683 30.83207064643967 30.5242806565188
  endloop
endfacet
facet normal 0.362209 0.917072 0.166682
  outer loop
    vertex 13.90576470410504 42.79754324717794 0
    vertex 8.624442505595184 43.3198450924027 8.602907220115572
    vertex 15.25199476719022 39.49371230540932 15.25199475344659
  endloop
endfacet
facet normal 0.435865 0.641498 0.631271
  outer loop
    vertex 21.39829114321451 22.17672063215994 32.79186176711166
    vertex 22.54717370546817 32.39452491432164 21.61526575064112
    vertex 11.94368913087683 30.83207064643967 30.5242806565188
  endloop
endfacet
facet normal 0.166784 0.917294 0.361601
  outer loop
    vertex 15.25199476719022 39.49371230540932 15.25199475344659
    vertex 8.624442505595184 43.3198450924027 8.602907220115572
    vertex 3.472076232444992e-15 42.79754322151621 13.90576478308375
  endloop
endfacet
facet normal 0.167001 0.3603 0.917766
  outer loop
    vertex 3.472076229180268e-15 13.90576470410504 42.79754324717794
    vertex 8.922255259865313 8.583994542365371 43.26324535647375
    vertex 15.25199471837641 15.25199471837844 39.49371233780353
  endloop
endfacet
facet normal 0.77079 0.325865 0.547444
  outer loop
    vertex 38.42312797870776 8.606252033537084 21.78521659903991
    vertex 34.00446142094947 21.12103522502527 20.55720006456134
    vertex 30.6396580156825 12.14177524000511 30.63965813620025
  endloop
endfacet
facet normal 0.452637 0.888349 0.0771701
  outer loop
    vertex 13.90576470410504 42.79754324717794 0
    vertex 23.69659506674265 36.94728762447775 9.918130843911117
    vertex 26.450336280694 36.4057647995232 0
  endloop
endfacet
facet normal 0.075705 0.88845 0.452688
  outer loop
    vertex 3.848826152087852e-15 36.40576469758573 26.4503364209989
    vertex 10.04271353724887 37.11226780576389 23.38425716421241
    vertex 3.472076232444992e-15 42.79754322151621 13.90576478308375
  endloop
endfacet
facet normal 0.639243 0.455865 0.619319
  outer loop
    vertex 34.00446142094947 21.12103522502527 20.55720006456134
    vertex 21.39829114321451 22.17672063215994 32.79186176711166
    vertex 30.6396580156825 12.14177524000511 30.63965813620025
  endloop
endfacet
facet normal 0.070092 0.452874 0.888815
  outer loop
    vertex 3.472076229180268e-15 13.90576470410504 42.79754324717794
    vertex 9.672813510006151 23.42752014161459 37.1831679502283
    vertex 3.848826149738525e-15 26.450336280694 36.4057647995232
  endloop
endfacet
facet normal 0.851595 0.339841 0.399117
  outer loop
    vertex 41.72120366053554 11.92353062469577 11.92353062469577
    vertex 34.00446142094947 21.12103522502527 20.55720006456134
    vertex 38.42312797870776 8.606252033537084 21.78521659903991
  endloop
endfacet
facet normal 0.452888 0.0696472 0.888843
  outer loop
    vertex 26.450336280694 2.229210166612374e-15 36.4057647995232
    vertex 23.37120683107543 9.683068177916931 37.21592242469486
    vertex 13.90576470410504 2.620593717451344e-15 42.79754324717794
  endloop
endfacet
facet normal 0.368942 0.801286 0.470981
  outer loop
    vertex 15.25199476719022 39.49371230540932 15.25199475344659
    vertex 10.04271353724887 37.11226780576389 23.38425716421241
    vertex 22.54717370546817 32.39452491432164 21.61526575064112
  endloop
endfacet
facet normal 0.654648 0.625478 0.424515
  outer loop
    vertex 30.81019723794977 30.84029775781461 11.16278551115124
    vertex 22.54717370546817 32.39452491432164 21.61526575064112
    vertex 34.00446142094947 21.12103522502527 20.55720006456134
  endloop
endfacet
facet normal 0.601632 0.557777 0.571772
  outer loop
    vertex 34.00446142094947 21.12103522502527 20.55720006456134
    vertex 22.54717370546817 32.39452491432164 21.61526575064112
    vertex 21.39829114321451 22.17672063215994 32.79186176711166
  endloop
endfacet
facet normal 0.85278 0.397588 0.338659
  outer loop
    vertex 41.72120366053554 11.92353062469577 11.92353062469577
    vertex 38.24607100430822 22.00060000093457 8.84373520252001
    vertex 34.00446142094947 21.12103522502527 20.55720006456134
  endloop
endfacet
facet normal 0.764845 0.559695 0.318989
  outer loop
    vertex 34.00446142094947 21.12103522502527 20.55720006456134
    vertex 38.24607100430822 22.00060000093457 8.84373520252001
    vertex 30.81019723794977 30.84029775781461 11.16278551115124
  endloop
endfacet
facet normal 0.771761 0.153593 0.617086
  outer loop
    vertex 36.40576469758573 1.619615991717348e-15 26.4503364209989
    vertex 38.42312797870776 8.606252033537084 21.78521659903991
    vertex 30.6396580156825 12.14177524000511 30.63965813620025
  endloop
endfacet
facet normal 0.775608 0.61376 0.147417
  outer loop
    vertex 30.81019723794977 30.84029775781461 11.16278551115124
    vertex 38.24607100430822 22.00060000093457 8.84373520252001
    vertex 36.40576469758573 26.4503364209989 0
  endloop
endfacet
facet normal 0.0417176 0.156298 0.986828
  outer loop
    vertex 2.755455298081545e-15 2.755455298081545e-15 45
    vertex 8.922255259865313 8.583994542365371 43.26324535647375
    vertex 3.472076229180268e-15 13.90576470410504 42.79754324717794
  endloop
endfacet
facet normal 0.156326 0.0372091 0.987004
  outer loop
    vertex 13.90576470410504 2.620593717451344e-15 42.79754324717794
    vertex 8.922255259865313 8.583994542365371 43.26324535647375
    vertex 2.755455298081545e-15 2.755455298081545e-15 45
  endloop
endfacet
facet normal 0.0363468 0.987036 0.156331
  outer loop
    vertex 3.472076232444992e-15 42.79754322151621 13.90576478308375
    vertex 8.624442505595184 43.3198450924027 8.602907220115572
    vertex 2.755455298081545e-15 45 0
  endloop
endfacet
facet normal 0.156333 0.987046 0.0360468
  outer loop
    vertex 2.755455298081545e-15 45 0
    vertex 8.624442505595184 43.3198450924027 8.602907220115572
    vertex 13.90576470410504 42.79754324717794 0
  endloop
endfacet
facet normal 0.890183 0.453571 0.0429752
  outer loop
    vertex 36.40576469758573 26.4503364209989 0
    vertex 38.24607100430822 22.00060000093457 8.84373520252001
    vertex 42.79754322151621 13.90576478308375 0
  endloop
endfacet
facet normal 0.89039 0.0372072 0.453676
  outer loop
    vertex 42.79754322151621 8.514825165649752e-16 13.90576478308375
    vertex 38.42312797870776 8.606252033537084 21.78521659903991
    vertex 36.40576469758573 1.619615991717348e-15 26.4503364209989
  endloop
endfacet
facet normal 0.139603 0.761655 0.632766
  outer loop
    vertex 11.94368913087683 30.83207064643967 30.5242806565188
    vertex 10.04271353724887 37.11226780576389 23.38425716421241
    vertex 3.848826152087852e-15 36.40576469758573 26.4503364209989
  endloop
endfacet
facet normal 0.637989 0.139513 0.757302
  outer loop
    vertex 30.6396580156825 12.14177524000511 30.63965813620025
    vertex 23.37120683107543 9.683068177916931 37.21592242469486
    vertex 26.450336280694 2.229210166612374e-15 36.4057647995232
  endloop
endfacet
facet normal 0.138644 0.638372 0.757139
  outer loop
    vertex 3.848826149738525e-15 26.450336280694 36.4057647995232
    vertex 9.672813510006151 23.42752014161459 37.1831679502283
    vertex 11.94368913087683 30.83207064643967 30.5242806565188
  endloop
endfacet
facet normal 0.631948 0.763377 0.133779
  outer loop
    vertex 26.450336280694 36.4057647995232 0
    vertex 23.69659506674265 36.94728762447775 9.918130843911117
    vertex 30.81019723794977 30.84029775781461 11.16278551115124
  endloop
endfacet
facet normal 0.470283 0.805816 0.359853
  outer loop
    vertex 22.54717370546817 32.39452491432164 21.61526575064112
    vertex 23.69659506674265 36.94728762447775 9.918130843911117
    vertex 15.25199476719022 39.49371230540932 15.25199475344659
  endloop
endfacet
facet normal 0.9213 0.3615 0.143264
  outer loop
    vertex 42.79754322151621 13.90576478308375 0
    vertex 38.24607100430822 22.00060000093457 8.84373520252001
    vertex 41.72120366053554 11.92353062469577 11.92353062469577
  endloop
endfacet
facet normal 0.57589 0.741139 0.345056
  outer loop
    vertex 30.81019723794977 30.84029775781461 11.16278551115124
    vertex 23.69659506674265 36.94728762447775 9.918130843911117
    vertex 22.54717370546817 32.39452491432164 21.61526575064112
  endloop
endfacet
facet normal 0.923245 0.142649 0.356748
  outer loop
    vertex 41.72120366053554 11.92353062469577 11.92353062469577
    vertex 38.42312797870776 8.606252033537084 21.78521659903991
    vertex 42.79754322151621 8.514825165649752e-16 13.90576478308375
  endloop
endfacet
facet normal -0.568578 0.74959 0.338872
  outer loop
    vertex -31.74111691412441 29.94303177571691 10.99619684810583
    vertex -23.87353227902855 30.5641142864328 22.82300099478717
    vertex -20.02367868417858 38.66303692361776 11.36757968064189
  endloop
endfacet
facet normal -0.591107 0.786716 0.177963
  outer loop
    vertex -26.45033642099889 36.40576469758573 0
    vertex -31.74111691412441 29.94303177571691 10.99619684810583
    vertex -20.02367868417858 38.66303692361776 11.36757968064189
  endloop
endfacet
facet normal -0.626333 0.441563 0.642439
  outer loop
    vertex -30.63965812514898 12.14177524844025 30.63965802339111
    vertex -21.3048666942226 21.74306022246632 33.14124299575391
    vertex -32.66255346598171 21.61868396425377 22.15378307954655
  endloop
endfacet
facet normal -0.368424 0.752659 0.545681
  outer loop
    vertex -12.14177523935582 30.63965801702862 30.63965813511141
    vertex -11.0699126741331 38.45421131614987 20.58471922179068
    vertex -23.87353227902855 30.5641142864328 22.82300099478717
  endloop
endfacet
facet normal -0.590469 0.534936 0.60431
  outer loop
    vertex -32.66255346598171 21.61868396425377 22.15378307954655
    vertex -21.3048666942226 21.74306022246632 33.14124299575391
    vertex -23.87353227902855 30.5641142864328 22.82300099478717
  endloop
endfacet
facet normal -0.419589 0.801668 0.425762
  outer loop
    vertex -23.87353227902855 30.5641142864328 22.82300099478717
    vertex -11.0699126741331 38.45421131614987 20.58471922179068
    vertex -20.02367868417858 38.66303692361776 11.36757968064189
  endloop
endfacet
facet normal -0.378285 0.163959 0.911053
  outer loop
    vertex -15.25199475260856 15.25199476610433 39.49371230615232
    vertex -23.69659515553989 9.918130909810593 36.9472875498365
    vertex -13.90576478170965 4.323558748869027e-15 42.79754322196268
  endloop
endfacet
facet normal -0.452554 0.888188 0.079483
  outer loop
    vertex -26.45033642099889 36.40576469758573 0
    vertex -20.02367868417858 38.66303692361776 11.36757968064189
    vertex -13.90576478308375 42.79754322151621 0
  endloop
endfacet
facet normal -0.798006 0.180593 0.574955
  outer loop
    vertex -30.63965812514898 12.14177524844025 30.63965802339111
    vertex -38.91320976096863 11.83719115687077 19.25209109719141
    vertex -36.40576479157767 6.078036316047492e-15 26.45033629163009
  endloop
endfacet
facet normal -0.704144 0.0914433 0.704144
  outer loop
    vertex -26.45033641170475 5.468442143080472e-15 36.40576470433832
    vertex -30.63965812514898 12.14177524844025 30.63965802339111
    vertex -36.40576479157767 6.078036316047492e-15 26.45033629163009
  endloop
endfacet
facet normal -0.0914433 0.704144 0.704144
  outer loop
    vertex 3.848826152087852e-15 36.40576469758573 26.4503364209989
    vertex -12.14177523935582 30.63965801702862 30.63965813511141
    vertex 3.848826149738525e-15 26.450336280694 36.4057647995232
  endloop
endfacet
facet normal -0.888285 0.452604 0.0781003
  outer loop
    vertex -42.79754324717794 13.90576470410505 0
    vertex -38.604838301581 20.18935122700499 11.27193668991346
    vertex -36.4057647995232 26.450336280694 0
  endloop
endfacet
facet normal -0.165744 0.367793 0.915018
  outer loop
    vertex 3.472076229180268e-15 13.90576470410504 42.79754324717794
    vertex -9.67500343471437 23.27143654143613 37.28048483907065
    vertex -15.25199475260856 15.25199476610433 39.49371230615232
  endloop
endfacet
facet normal -0.887628 0.0870025 0.452269
  outer loop
    vertex -36.40576479157767 6.078036316047492e-15 26.45033629163009
    vertex -38.91320976096863 11.83719115687077 19.25209109719141
    vertex -42.79754325060689 6.09266994640534e-15 13.90576469355182
  endloop
endfacet
facet normal -0.665717 0.623396 0.41012
  outer loop
    vertex -31.74111691412441 29.94303177571691 10.99619684810583
    vertex -32.66255346598171 21.61868396425377 22.15378307954655
    vertex -23.87353227902855 30.5641142864328 22.82300099478717
  endloop
endfacet
facet normal -0.362209 0.166682 0.917072
  outer loop
    vertex -13.90576478170965 4.323558748869027e-15 42.79754322196268
    vertex -8.624442548407066 8.602907088154257 43.31984511008564
    vertex -15.25199475260856 15.25199476610433 39.49371230615232
  endloop
endfacet
facet normal -0.166784 0.361601 0.917294
  outer loop
    vertex -15.25199475260856 15.25199476610433 39.49371230615232
    vertex -8.624442548407066 8.602907088154257 43.31984511008564
    vertex 3.472076229180268e-15 13.90576470410504 42.79754324717794
  endloop
endfacet
facet normal -0.895466 0.324345 0.304862
  outer loop
    vertex -42.70068394065083 9.994204003111626 10.08798678353773
    vertex -38.91320976096863 11.83719115687077 19.25209109719141
    vertex -38.604838301581 20.18935122700499 11.27193668991346
  endloop
endfacet
facet normal -0.434061 0.628537 0.645393
  outer loop
    vertex -23.87353227902855 30.5641142864328 22.82300099478717
    vertex -21.3048666942226 21.74306022246632 33.14124299575391
    vertex -12.14177523935582 30.63965801702862 30.63965813511141
  endloop
endfacet
facet normal -0.452637 0.0771701 0.888349
  outer loop
    vertex -13.90576478170965 4.323558748869027e-15 42.79754322196268
    vertex -23.69659515553989 9.918130909810593 36.9472875498365
    vertex -26.45033641170475 5.468442143080472e-15 36.40576470433832
  endloop
endfacet
facet normal -0.0754628 0.888466 0.452696
  outer loop
    vertex 3.472076232444992e-15 42.79754322151621 13.90576478308375
    vertex -11.0699126741331 38.45421131614987 20.58471922179068
    vertex 3.848826152087852e-15 36.40576469758573 26.4503364209989
  endloop
endfacet
facet normal -0.705107 0.705107 0.0751489
  outer loop
    vertex -36.4057647995232 26.450336280694 0
    vertex -31.74111691412441 29.94303177571691 10.99619684810583
    vertex -26.45033642099889 36.40576469758573 0
  endloop
endfacet
facet normal -0.0634547 0.985698 0.156119
  outer loop
    vertex 2.755455298081545e-15 45 0
    vertex -9.786054198224313 42.82247228197915 9.770824473325883
    vertex 3.472076232444992e-15 42.79754322151621 13.90576478308375
  endloop
endfacet
facet normal -0.923706 0.354119 0.146176
  outer loop
    vertex -42.79754324717794 13.90576470410505 0
    vertex -42.70068394065083 9.994204003111626 10.08798678353773
    vertex -38.604838301581 20.18935122700499 11.27193668991346
  endloop
endfacet
facet normal -0.0684498 0.452926 0.888917
  outer loop
    vertex 3.848826149738525e-15 26.450336280694 36.4057647995232
    vertex -9.67500343471437 23.27143654143613 37.28048483907065
    vertex 3.472076229180268e-15 13.90576470410504 42.79754324717794
  endloop
endfacet
facet normal -0.156121 0.985707 0.0633108
  outer loop
    vertex -13.90576478308375 42.79754322151621 0
    vertex -9.786054198224313 42.82247228197915 9.770824473325883
    vertex 2.755455298081545e-15 45 0
  endloop
endfacet
facet normal -0.924445 0.143857 0.353137
  outer loop
    vertex -42.79754325060689 6.09266994640534e-15 13.90576469355182
    vertex -38.91320976096863 11.83719115687077 19.25209109719141
    vertex -42.70068394065083 9.994204003111626 10.08798678353773
  endloop
endfacet
facet normal -0.168894 0.786878 0.593546
  outer loop
    vertex 3.848826152087852e-15 36.40576469758573 26.4503364209989
    vertex -11.0699126741331 38.45421131614987 20.58471922179068
    vertex -12.14177523935582 30.63965801702862 30.63965813511141
  endloop
endfacet
facet normal -0.768405 0.328021 0.549505
  outer loop
    vertex -30.63965812514898 12.14177524844025 30.63965802339111
    vertex -32.66255346598171 21.61868396425377 22.15378307954655
    vertex -38.91320976096863 11.83719115687077 19.25209109719141
  endloop
endfacet
facet normal -0.805115 0.571091 0.16014
  outer loop
    vertex -38.604838301581 20.18935122700499 11.27193668991346
    vertex -31.74111691412441 29.94303177571691 10.99619684810583
    vertex -36.4057647995232 26.450336280694 0
  endloop
endfacet
facet normal -0.0363468 0.156331 0.987036
  outer loop
    vertex 3.472076229180268e-15 13.90576470410504 42.79754324717794
    vertex -8.624442548407066 8.602907088154257 43.31984511008564
    vertex 2.755455298081545e-15 2.755455298081545e-15 45
  endloop
endfacet
facet normal -0.156333 0.0360468 0.987046
  outer loop
    vertex 2.755455298081545e-15 2.755455298081545e-15 45
    vertex -8.624442548407066 8.602907088154257 43.31984511008564
    vertex -13.90576478170965 4.323558748869027e-15 42.79754322196268
  endloop
endfacet
facet normal -0.564158 0.354171 0.745848
  outer loop
    vertex -30.63965812514898 12.14177524844025 30.63965802339111
    vertex -23.69659515553989 9.918130909810593 36.9472875498365
    vertex -21.3048666942226 21.74306022246632 33.14124299575391
  endloop
endfacet
facet normal -0.763021 0.546692 0.344857
  outer loop
    vertex -38.604838301581 20.18935122700499 11.27193668991346
    vertex -32.66255346598171 21.61868396425377 22.15378307954655
    vertex -31.74111691412441 29.94303177571691 10.99619684810583
  endloop
endfacet
facet normal -0.147775 0.922998 0.3553
  outer loop
    vertex 3.472076232444992e-15 42.79754322151621 13.90576478308375
    vertex -9.786054198224313 42.82247228197915 9.770824473325883
    vertex -11.0699126741331 38.45421131614987 20.58471922179068
  endloop
endfacet
facet normal -0.352679 0.92423 0.146344
  outer loop
    vertex -20.02367868417858 38.66303692361776 11.36757968064189
    vertex -9.786054198224313 42.82247228197915 9.770824473325883
    vertex -13.90576478308375 42.79754322151621 0
  endloop
endfacet
facet normal -0.985268 0.156051 0.0699679
  outer loop
    vertex -45 5.51091059616309e-15 0
    vertex -42.70068394065083 9.994204003111626 10.08798678353773
    vertex -42.79754324717794 13.90576470410505 0
  endloop
endfacet
facet normal -0.140556 0.636465 0.75839
  outer loop
    vertex -12.14177523935582 30.63965801702862 30.63965813511141
    vertex -9.67500343471437 23.27143654143613 37.28048483907065
    vertex 3.848826149738525e-15 26.450336280694 36.4057647995232
  endloop
endfacet
facet normal -0.985323 0.069164 0.15606
  outer loop
    vertex -42.79754325060689 6.09266994640534e-15 13.90576469355182
    vertex -42.70068394065083 9.994204003111626 10.08798678353773
    vertex -45 5.51091059616309e-15 0
  endloop
endfacet
facet normal -0.641699 0.136964 0.754628
  outer loop
    vertex -26.45033641170475 5.468442143080472e-15 36.40576470433832
    vertex -23.69659515553989 9.918130909810593 36.9472875498365
    vertex -30.63965812514898 12.14177524844025 30.63965802339111
  endloop
endfacet
facet normal -0.341747 0.563473 0.752136
  outer loop
    vertex -21.3048666942226 21.74306022246632 33.14124299575391
    vertex -9.67500343471437 23.27143654143613 37.28048483907065
    vertex -12.14177523935582 30.63965801702862 30.63965813511141
  endloop
endfacet
facet normal -0.468281 0.355128 0.809072
  outer loop
    vertex -21.3048666942226 21.74306022246632 33.14124299575391
    vertex -23.69659515553989 9.918130909810593 36.9472875498365
    vertex -15.25199475260856 15.25199476610433 39.49371230615232
  endloop
endfacet
facet normal -0.3503 0.467591 0.811572
  outer loop
    vertex -15.25199475260856 15.25199476610433 39.49371230615232
    vertex -9.67500343471437 23.27143654143613 37.28048483907065
    vertex -21.3048666942226 21.74306022246632 33.14124299575391
  endloop
endfacet
facet normal -0.312377 0.893112 0.323685
  outer loop
    vertex -11.0699126741331 38.45421131614987 20.58471922179068
    vertex -9.786054198224313 42.82247228197915 9.770824473325883
    vertex -20.02367868417858 38.66303692361776 11.36757968064189
  endloop
endfacet
facet normal -0.822654 0.408346 0.395593
  outer loop
    vertex -38.91320976096863 11.83719115687077 19.25209109719141
    vertex -32.66255346598171 21.61868396425377 22.15378307954655
    vertex -38.604838301581 20.18935122700499 11.27193668991346
  endloop
endfacet
facet normal 0.353133 -0.809143 0.469664
  outer loop
    vertex 21.39829116622871 -32.79186177109148 22.17672060406876
    vertex 9.67281351000616 -37.18316795022831 23.42752014161458
    vertex 15.25199471837642 -39.49371233780352 15.25199471837844
  endloop
endfacet
facet normal 0.981203 -0.155407 0.114409
  outer loop
    vertex 45 0 0
    vertex 41.72120364007846 -11.92353066048609 11.92353066048609
    vertex 42.79754322151621 -13.90576478308375 1.70296503312995e-15
  endloop
endfacet
facet normal 0.981203 -0.114409 0.155407
  outer loop
    vertex 42.79754322151621 8.514825165649752e-16 13.90576478308375
    vertex 41.72120364007846 -11.92353066048609 11.92353066048609
    vertex 45 0 0
  endloop
endfacet
facet normal 0.472375 -0.804726 0.359552
  outer loop
    vertex 15.25199471837642 -39.49371233780352 15.25199471837844
    vertex 23.37120683107545 -37.21592242469485 9.683068177916931
    vertex 21.39829116622871 -32.79186177109148 22.17672060406876
  endloop
endfacet
facet normal 0.34101 -0.748588 0.568619
  outer loop
    vertex 11.94368913638992 -30.52428065273229 30.83207064805272
    vertex 9.67281351000616 -37.18316795022831 23.42752014161458
    vertex 21.39829116622871 -32.79186177109148 22.17672060406876
  endloop
endfacet
facet normal 0.378285 -0.163959 0.911053
  outer loop
    vertex 15.25199476719022 -15.25199475344659 39.49371230540932
    vertex 23.69659508235533 -9.918130858176937 36.94728761063485
    vertex 13.90576470410504 2.620593717451344e-15 42.79754324717794
  endloop
endfacet
facet normal 0.704144 -0.704144 0.0914433
  outer loop
    vertex 36.40576469758573 -26.4503364209989 3.239231983434696e-15
    vertex 30.6396580156825 -30.63965813620025 12.14177524000512
    vertex 26.450336280694 -36.4057647995232 4.458420333224748e-15
  endloop
endfacet
facet normal 0.705054 -0.0761474 0.705054
  outer loop
    vertex 26.450336280694 2.229210166612374e-15 36.4057647995232
    vertex 30.81019725586367 -11.16278549663075 30.84029774517394
    vertex 36.40576469758573 1.619615991717348e-15 26.4503364209989
  endloop
endfacet
facet normal 0.0884423 -0.704336 0.704336
  outer loop
    vertex 3.848826149738524e-15 -36.4057647995232 26.450336280694
    vertex 11.94368913638992 -30.52428065273229 30.83207064805272
    vertex 3.848826152087851e-15 -26.45033642099889 36.40576469758573
  endloop
endfacet
facet normal 0.164864 -0.37299 0.913071
  outer loop
    vertex 3.472076232444992e-15 -13.90576478308375 42.79754322151621
    vertex 10.04271349913926 -23.3842571629141 37.11226781689455
    vertex 15.25199476719022 -15.25199475344659 39.49371230540932
  endloop
endfacet
facet normal 0.55887 -0.749981 0.353825
  outer loop
    vertex 21.39829116622871 -32.79186177109148 22.17672060406876
    vertex 23.37120683107545 -37.21592242469485 9.683068177916931
    vertex 30.6396580156825 -30.63965813620025 12.14177524000512
  endloop
endfacet
facet normal 0.165202 -0.91382 0.370999
  outer loop
    vertex 15.25199471837642 -39.49371233780352 15.25199471837844
    vertex 9.67281351000616 -37.18316795022831 23.42752014161458
    vertex 3.472076229180268e-15 -42.79754324717794 13.90576470410505
  endloop
endfacet
facet normal 0.370051 -0.914198 0.165239
  outer loop
    vertex 23.37120683107545 -37.21592242469485 9.683068177916931
    vertex 8.922255259865333 -43.26324535647374 8.583994542365371
    vertex 13.90576470410504 -42.79754324717794 5.241187434902688e-15
  endloop
endfacet
facet normal 0.37001 -0.914159 0.165549
  outer loop
    vertex 15.25199471837642 -39.49371233780352 15.25199471837844
    vertex 8.922255259865333 -43.26324535647374 8.583994542365371
    vertex 23.37120683107545 -37.21592242469485 9.683068177916931
  endloop
endfacet
facet normal 0.36063 -0.56003 0.745864
  outer loop
    vertex 22.54717374506313 -21.61526574790064 32.39452488859143
    vertex 10.04271349913926 -23.3842571629141 37.11226781689455
    vertex 11.94368913638992 -30.52428065273229 30.83207064805272
  endloop
endfacet
facet normal 0.362209 -0.166682 0.917072
  outer loop
    vertex 13.90576470410504 2.620593717451344e-15 42.79754324717794
    vertex 8.624442505595184 -8.602907220115572 43.3198450924027
    vertex 15.25199476719022 -15.25199475344659 39.49371230540932
  endloop
endfacet
facet normal 0.435865 -0.631271 0.641498
  outer loop
    vertex 21.39829116622871 -32.79186177109148 22.17672060406876
    vertex 22.54717374506313 -21.61526574790064 32.39452488859143
    vertex 11.94368913638992 -30.52428065273229 30.83207064805272
  endloop
endfacet
facet normal 0.166784 -0.361601 0.917294
  outer loop
    vertex 15.25199476719022 -15.25199475344659 39.49371230540932
    vertex 8.624442505595184 -8.602907220115572 43.3198450924027
    vertex 3.472076232444992e-15 -13.90576478308375 42.79754322151621
  endloop
endfacet
facet normal 0.167001 -0.917766 0.3603
  outer loop
    vertex 3.472076229180268e-15 -42.79754324717794 13.90576470410505
    vertex 8.922255259865333 -43.26324535647374 8.583994542365371
    vertex 15.25199471837642 -39.49371233780352 15.25199471837844
  endloop
endfacet
facet normal 0.77079 -0.547444 0.325865
  outer loop
    vertex 38.42312797769431 -21.7852166045074 8.606252024221718
    vertex 34.00446142514253 -20.55720006346754 21.12103521933913
    vertex 30.6396580156825 -30.63965813620025 12.14177524000512
  endloop
endfacet
facet normal 0.452637 -0.0771701 0.888349
  outer loop
    vertex 13.90576470410504 2.620593717451344e-15 42.79754324717794
    vertex 23.69659508235533 -9.918130858176937 36.94728761063485
    vertex 26.450336280694 2.229210166612374e-15 36.4057647995232
  endloop
endfacet
facet normal 0.075705 -0.452688 0.88845
  outer loop
    vertex 3.848826152087851e-15 -26.45033642099889 36.40576469758573
    vertex 10.04271349913926 -23.3842571629141 37.11226781689455
    vertex 3.472076232444992e-15 -13.90576478308375 42.79754322151621
  endloop
endfacet
facet normal 0.639243 -0.619319 0.455865
  outer loop
    vertex 34.00446142514253 -20.55720006346754 21.12103521933913
    vertex 21.39829116622871 -32.79186177109148 22.17672060406876
    vertex 30.6396580156825 -30.63965813620025 12.14177524000512
  endloop
endfacet
facet normal 0.070092 -0.888815 0.452874
  outer loop
    vertex 3.472076229180268e-15 -42.79754324717794 13.90576470410505
    vertex 9.67281351000616 -37.18316795022831 23.42752014161458
    vertex 3.848826149738524e-15 -36.4057647995232 26.450336280694
  endloop
endfacet
facet normal 0.851595 -0.399117 0.339841
  outer loop
    vertex 41.72120364007846 -11.92353066048609 11.92353066048609
    vertex 34.00446142514253 -20.55720006346754 21.12103521933913
    vertex 38.42312797769431 -21.7852166045074 8.606252024221718
  endloop
endfacet
facet normal 0.452888 -0.888843 0.0696472
  outer loop
    vertex 26.450336280694 -36.4057647995232 4.458420333224748e-15
    vertex 23.37120683107545 -37.21592242469485 9.683068177916931
    vertex 13.90576470410504 -42.79754324717794 5.241187434902688e-15
  endloop
endfacet
facet normal 0.368942 -0.470981 0.801286
  outer loop
    vertex 15.25199476719022 -15.25199475344659 39.49371230540932
    vertex 10.04271349913926 -23.3842571629141 37.11226781689455
    vertex 22.54717374506313 -21.61526574790064 32.39452488859143
  endloop
endfacet
facet normal 0.654648 -0.424515 0.625478
  outer loop
    vertex 30.81019725586367 -11.16278549663075 30.84029774517394
    vertex 22.54717374506313 -21.61526574790064 32.39452488859143
    vertex 34.00446142514253 -20.55720006346754 21.12103521933913
  endloop
endfacet
facet normal 0.601632 -0.571772 0.557777
  outer loop
    vertex 34.00446142514253 -20.55720006346754 21.12103521933913
    vertex 22.54717374506313 -21.61526574790064 32.39452488859143
    vertex 21.39829116622871 -32.79186177109148 22.17672060406876
  endloop
endfacet
facet normal 0.85278 -0.338659 0.397588
  outer loop
    vertex 41.72120364007846 -11.92353066048609 11.92353066048609
    vertex 38.24607099548487 -8.843735214256169 22.00060001155552
    vertex 34.00446142514253 -20.55720006346754 21.12103521933913
  endloop
endfacet
facet normal 0.764845 -0.318989 0.559695
  outer loop
    vertex 34.00446142514253 -20.55720006346754 21.12103521933913
    vertex 38.24607099548487 -8.843735214256169 22.00060001155552
    vertex 30.81019725586367 -11.16278549663075 30.84029774517394
  endloop
endfacet
facet normal 0.771761 -0.617086 0.153593
  outer loop
    vertex 36.40576469758573 -26.4503364209989 3.239231983434696e-15
    vertex 38.42312797769431 -21.7852166045074 8.606252024221718
    vertex 30.6396580156825 -30.63965813620025 12.14177524000512
  endloop
endfacet
facet normal 0.775608 -0.147417 0.61376
  outer loop
    vertex 30.81019725586367 -11.16278549663075 30.84029774517394
    vertex 38.24607099548487 -8.843735214256169 22.00060001155552
    vertex 36.40576469758573 1.619615991717348e-15 26.4503364209989
  endloop
endfacet
facet normal 0.0417176 -0.986828 0.156298
  outer loop
    vertex 2.755455298081545e-15 -45 5.51091059616309e-15
    vertex 8.922255259865333 -43.26324535647374 8.583994542365371
    vertex 3.472076229180268e-15 -42.79754324717794 13.90576470410505
  endloop
endfacet
facet normal 0.156326 -0.987004 0.0372091
  outer loop
    vertex 13.90576470410504 -42.79754324717794 5.241187434902688e-15
    vertex 8.922255259865333 -43.26324535647374 8.583994542365371
    vertex 2.755455298081545e-15 -45 5.51091059616309e-15
  endloop
endfacet
facet normal 0.0363468 -0.156331 0.987036
  outer loop
    vertex 3.472076232444992e-15 -13.90576478308375 42.79754322151621
    vertex 8.624442505595184 -8.602907220115572 43.3198450924027
    vertex 2.755455298081545e-15 2.755455298081545e-15 45
  endloop
endfacet
facet normal 0.156333 -0.0360468 0.987046
  outer loop
    vertex 2.755455298081545e-15 2.755455298081545e-15 45
    vertex 8.624442505595184 -8.602907220115572 43.3198450924027
    vertex 13.90576470410504 2.620593717451344e-15 42.79754324717794
  endloop
endfacet
facet normal 0.890183 -0.0429752 0.453571
  outer loop
    vertex 36.40576469758573 1.619615991717348e-15 26.4503364209989
    vertex 38.24607099548487 -8.843735214256169 22.00060001155552
    vertex 42.79754322151621 8.514825165649752e-16 13.90576478308375
  endloop
endfacet
facet normal 0.89039 -0.453676 0.0372072
  outer loop
    vertex 42.79754322151621 -13.90576478308375 1.70296503312995e-15
    vertex 38.42312797769431 -21.7852166045074 8.606252024221718
    vertex 36.40576469758573 -26.4503364209989 3.239231983434696e-15
  endloop
endfacet
facet normal 0.139603 -0.632766 0.761655
  outer loop
    vertex 11.94368913638992 -30.52428065273229 30.83207064805272
    vertex 10.04271349913926 -23.3842571629141 37.11226781689455
    vertex 3.848826152087851e-15 -26.45033642099889 36.40576469758573
  endloop
endfacet
facet normal 0.637989 -0.757302 0.139513
  outer loop
    vertex 30.6396580156825 -30.63965813620025 12.14177524000512
    vertex 23.37120683107545 -37.21592242469485 9.683068177916931
    vertex 26.450336280694 -36.4057647995232 4.458420333224748e-15
  endloop
endfacet
facet normal 0.138644 -0.757139 0.638372
  outer loop
    vertex 3.848826149738524e-15 -36.4057647995232 26.450336280694
    vertex 9.67281351000616 -37.18316795022831 23.42752014161458
    vertex 11.94368913638992 -30.52428065273229 30.83207064805272
  endloop
endfacet
facet normal 0.631948 -0.133779 0.763377
  outer loop
    vertex 26.450336280694 2.229210166612374e-15 36.4057647995232
    vertex 23.69659508235533 -9.918130858176937 36.94728761063485
    vertex 30.81019725586367 -11.16278549663075 30.84029774517394
  endloop
endfacet
facet normal 0.470283 -0.359853 0.805816
  outer loop
    vertex 22.54717374506313 -21.61526574790064 32.39452488859143
    vertex 23.69659508235533 -9.918130858176937 36.94728761063485
    vertex 15.25199476719022 -15.25199475344659 39.49371230540932
  endloop
endfacet
facet normal 0.9213 -0.143264 0.3615
  outer loop
    vertex 42.79754322151621 8.514825165649752e-16 13.90576478308375
    vertex 38.24607099548487 -8.843735214256169 22.00060001155552
    vertex 41.72120364007846 -11.92353066048609 11.92353066048609
  endloop
endfacet
facet normal 0.57589 -0.345056 0.741139
  outer loop
    vertex 30.81019725586367 -11.16278549663075 30.84029774517394
    vertex 23.69659508235533 -9.918130858176937 36.94728761063485
    vertex 22.54717374506313 -21.61526574790064 32.39452488859143
  endloop
endfacet
facet normal 0.923245 -0.356748 0.142649
  outer loop
    vertex 41.72120364007846 -11.92353066048609 11.92353066048609
    vertex 38.42312797769431 -21.7852166045074 8.606252024221718
    vertex 42.79754322151621 -13.90576478308375 1.70296503312995e-15
  endloop
endfacet
facet normal -0.568578 -0.338872 0.74959
  outer loop
    vertex -31.74111690621825 -10.99619683560701 29.94303178868788
    vertex -23.87353228871183 -22.82300094048794 30.56411431941583
    vertex -20.02367858771535 -11.36757965440559 38.6630369812902
  endloop
endfacet
facet normal -0.591107 -0.177963 0.786716
  outer loop
    vertex -26.45033641170475 5.468442143080472e-15 36.40576470433832
    vertex -31.74111690621825 -10.99619683560701 29.94303178868788
    vertex -20.02367858771535 -11.36757965440559 38.6630369812902
  endloop
endfacet
facet normal -0.626333 -0.642439 0.441563
  outer loop
    vertex -30.63965813139823 -30.63965802045679 12.14177524007505
    vertex -21.3048667671276 -33.14124297283953 21.74306018595718
    vertex -32.66255344605665 -22.15378309460199 21.61868397892943
  endloop
endfacet
facet normal -0.368424 -0.545681 0.752659
  outer loop
    vertex -12.14177523935585 -30.63965813511141 30.63965801702862
    vertex -11.06991273026584 -20.58471908581845 38.45421137277736
    vertex -23.87353228871183 -22.82300094048794 30.56411431941583
  endloop
endfacet
facet normal -0.590469 -0.60431 0.534936
  outer loop
    vertex -32.66255344605665 -22.15378309460199 21.61868397892943
    vertex -21.3048667671276 -33.14124297283953 21.74306018595718
    vertex -23.87353228871183 -22.82300094048794 30.56411431941583
  endloop
endfacet
facet normal -0.419589 -0.425762 0.801668
  outer loop
    vertex -23.87353228871183 -22.82300094048794 30.56411431941583
    vertex -11.06991273026584 -20.58471908581845 38.45421137277736
    vertex -20.02367858771535 -11.36757965440559 38.6630369812902
  endloop
endfacet
facet normal -0.378285 -0.911053 0.163959
  outer loop
    vertex -15.25199475212652 -39.49371230663449 15.25199476533781
    vertex -23.69659523081629 -36.94728748331757 9.918130977756821
    vertex -13.90576478007464 -42.79754322249392 5.241187431879768e-15
  endloop
endfacet
facet normal -0.798006 -0.574955 0.180593
  outer loop
    vertex -30.63965813139823 -30.63965802045679 12.14177524007505
    vertex -38.91320976063512 -19.25209109992403 11.83719115352278
    vertex -36.4057647964417 -26.45033628493533 3.239231966771715e-15
  endloop
endfacet
facet normal -0.704144 -0.704144 0.0914433
  outer loop
    vertex -26.45033641592189 -36.40576470127439 4.458420321192739e-15
    vertex -30.63965813139823 -30.63965802045679 12.14177524007505
    vertex -36.4057647964417 -26.45033628493533 3.239231966771715e-15
  endloop
endfacet
facet normal -0.888285 -0.0781003 0.452604
  outer loop
    vertex -42.79754325060689 6.09266994640534e-15 13.90576469355182
    vertex -38.60483809784932 -11.27193699905149 20.18935144397303
    vertex -36.40576479157767 6.078036316047492e-15 26.45033629163009
  endloop
endfacet
facet normal -0.452554 -0.079483 0.888188
  outer loop
    vertex -26.45033641170475 5.468442143080472e-15 36.40576470433832
    vertex -20.02367858771535 -11.36757965440559 38.6630369812902
    vertex -13.90576478170965 4.323558748869027e-15 42.79754322196268
  endloop
endfacet
facet normal -0.0914433 -0.704144 0.704144
  outer loop
    vertex 3.848826152087851e-15 -26.45033642099889 36.40576469758573
    vertex -12.14177523935585 -30.63965813511141 30.63965801702862
    vertex 3.848826149738524e-15 -36.4057647995232 26.450336280694
  endloop
endfacet
facet normal -0.165744 -0.915018 0.367793
  outer loop
    vertex 3.472076229180268e-15 -42.79754324717794 13.90576470410505
    vertex -9.675003435839937 -37.28048484000881 23.27143653946526
    vertex -15.25199475212652 -39.49371230663449 15.25199476533781
  endloop
endfacet
facet normal -0.887628 -0.452269 0.0870025
  outer loop
    vertex -36.4057647964417 -26.45033628493533 3.239231966771715e-15
    vertex -38.91320976063512 -19.25209109992403 11.83719115352278
    vertex -42.79754324602812 -13.90576470764383 1.702965023891226e-15
  endloop
endfacet
facet normal -0.665717 -0.41012 0.623396
  outer loop
    vertex -31.74111690621825 -10.99619683560701 29.94303178868788
    vertex -32.66255344605665 -22.15378309460199 21.61868397892943
    vertex -23.87353228871183 -22.82300094048794 30.56411431941583
  endloop
endfacet
facet normal -0.362209 -0.917072 0.166682
  outer loop
    vertex -13.90576478007464 -42.79754322249392 5.241187431879768e-15
    vertex -8.624442528742327 -43.31984508397664 8.602907239339865
    vertex -15.25199475212652 -39.49371230663449 15.25199476533781
  endloop
endfacet
facet normal -0.166784 -0.917294 0.361601
  outer loop
    vertex -15.25199475212652 -39.49371230663449 15.25199476533781
    vertex -8.624442528742327 -43.31984508397664 8.602907239339865
    vertex 3.472076229180268e-15 -42.79754324717794 13.90576470410505
  endloop
endfacet
facet normal -0.895466 -0.304862 0.324345
  outer loop
    vertex -42.70068387526398 -10.08798735666624 9.994203703973255
    vertex -38.91320976063512 -19.25209109992403 11.83719115352278
    vertex -38.60483809784932 -11.27193699905149 20.18935144397303
  endloop
endfacet
facet normal -0.434061 -0.645393 0.628537
  outer loop
    vertex -23.87353228871183 -22.82300094048794 30.56411431941583
    vertex -21.3048667671276 -33.14124297283953 21.74306018595718
    vertex -12.14177523935585 -30.63965813511141 30.63965801702862
  endloop
endfacet
facet normal -0.452637 -0.888349 0.0771701
  outer loop
    vertex -13.90576478007464 -42.79754322249392 5.241187431879768e-15
    vertex -23.69659523081629 -36.94728748331757 9.918130977756821
    vertex -26.45033641592189 -36.40576470127439 4.458420321192739e-15
  endloop
endfacet
facet normal -0.0754628 -0.452696 0.888466
  outer loop
    vertex 3.472076232444992e-15 -13.90576478308375 42.79754322151621
    vertex -11.06991273026584 -20.58471908581845 38.45421137277736
    vertex 3.848826152087851e-15 -26.45033642099889 36.40576469758573
  endloop
endfacet
facet normal -0.705107 -0.0751489 0.705107
  outer loop
    vertex -36.40576479157767 6.078036316047492e-15 26.45033629163009
    vertex -31.74111690621825 -10.99619683560701 29.94303178868788
    vertex -26.45033641170475 5.468442143080472e-15 36.40576470433832
  endloop
endfacet
facet normal -0.0634547 -0.156119 0.985698
  outer loop
    vertex 2.755455298081545e-15 2.755455298081545e-15 45
    vertex -9.78605410438262 -9.770824534509632 42.8224722894641
    vertex 3.472076232444992e-15 -13.90576478308375 42.79754322151621
  endloop
endfacet
facet normal -0.923706 -0.146176 0.354119
  outer loop
    vertex -42.79754325060689 6.09266994640534e-15 13.90576469355182
    vertex -42.70068387526398 -10.08798735666624 9.994203703973255
    vertex -38.60483809784932 -11.27193699905149 20.18935144397303
  endloop
endfacet
facet normal -0.0684498 -0.888917 0.452926
  outer loop
    vertex 3.848826149738524e-15 -36.4057647995232 26.450336280694
    vertex -9.675003435839937 -37.28048484000881 23.27143653946526
    vertex 3.472076229180268e-15 -42.79754324717794 13.90576470410505
  endloop
endfacet
facet normal -0.156121 -0.0633108 0.985707
  outer loop
    vertex -13.90576478170965 4.323558748869027e-15 42.79754322196268
    vertex -9.78605410438262 -9.770824534509632 42.8224722894641
    vertex 2.755455298081545e-15 2.755455298081545e-15 45
  endloop
endfacet
facet normal -0.924445 -0.353137 0.143857
  outer loop
    vertex -42.79754324602812 -13.90576470764383 1.702965023891226e-15
    vertex -38.91320976063512 -19.25209109992403 11.83719115352278
    vertex -42.70068387526398 -10.08798735666624 9.994203703973255
  endloop
endfacet
facet normal -0.168894 -0.593546 0.786878
  outer loop
    vertex 3.848826152087851e-15 -26.45033642099889 36.40576469758573
    vertex -11.06991273026584 -20.58471908581845 38.45421137277736
    vertex -12.14177523935585 -30.63965813511141 30.63965801702862
  endloop
endfacet
facet normal -0.768405 -0.549505 0.328021
  outer loop
    vertex -30.63965813139823 -30.63965802045679 12.14177524007505
    vertex -32.66255344605665 -22.15378309460199 21.61868397892943
    vertex -38.91320976063512 -19.25209109992403 11.83719115352278
  endloop
endfacet
facet normal -0.805115 -0.16014 0.571091
  outer loop
    vertex -38.60483809784932 -11.27193699905149 20.18935144397303
    vertex -31.74111690621825 -10.99619683560701 29.94303178868788
    vertex -36.40576479157767 6.078036316047492e-15 26.45033629163009
  endloop
endfacet
facet normal -0.0363468 -0.987036 0.156331
  outer loop
    vertex 3.472076229180268e-15 -42.79754324717794 13.90576470410505
    vertex -8.624442528742327 -43.31984508397664 8.602907239339865
    vertex 2.755455298081545e-15 -45 5.51091059616309e-15
  endloop
endfacet
facet normal -0.156333 -0.987046 0.0360468
  outer loop
    vertex 2.755455298081545e-15 -45 5.51091059616309e-15
    vertex -8.624442528742327 -43.31984508397664 8.602907239339865
    vertex -13.90576478007464 -42.79754322249392 5.241187431879768e-15
  endloop
endfacet
facet normal -0.564158 -0.745848 0.354171
  outer loop
    vertex -30.63965813139823 -30.63965802045679 12.14177524007505
    vertex -23.69659523081629 -36.94728748331757 9.918130977756821
    vertex -21.3048667671276 -33.14124297283953 21.74306018595718
  endloop
endfacet
facet normal -0.763021 -0.344857 0.546692
  outer loop
    vertex -38.60483809784932 -11.27193699905149 20.18935144397303
    vertex -32.66255344605665 -22.15378309460199 21.61868397892943
    vertex -31.74111690621825 -10.99619683560701 29.94303178868788
  endloop
endfacet
facet normal -0.147775 -0.3553 0.922998
  outer loop
    vertex 3.472076232444992e-15 -13.90576478308375 42.79754322151621
    vertex -9.78605410438262 -9.770824534509632 42.8224722894641
    vertex -11.06991273026584 -20.58471908581845 38.45421137277736
  endloop
endfacet
facet normal -0.352679 -0.146344 0.92423
  outer loop
    vertex -20.02367858771535 -11.36757965440559 38.6630369812902
    vertex -9.78605410438262 -9.770824534509632 42.8224722894641
    vertex -13.90576478170965 4.323558748869027e-15 42.79754322196268
  endloop
endfacet
facet normal -0.985268 -0.0699679 0.156051
  outer loop
    vertex -45 5.51091059616309e-15 0
    vertex -42.70068387526398 -10.08798735666624 9.994203703973255
    vertex -42.79754325060689 6.09266994640534e-15 13.90576469355182
  endloop
endfacet
facet normal -0.140556 -0.75839 0.636465
  outer loop
    vertex -12.14177523935585 -30.63965813511141 30.63965801702862
    vertex -9.675003435839937 -37.28048484000881 23.27143653946526
    vertex 3.848826149738524e-15 -36.4057647995232 26.450336280694
  endloop
endfacet
facet normal -0.985323 -0.15606 0.069164
  outer loop
    vertex -42.79754324602812 -13.90576470764383 1.702965023891226e-15
    vertex -42.70068387526398 -10.08798735666624 9.994203703973255
    vertex -45 5.51091059616309e-15 0
  endloop
endfacet
facet normal -0.641699 -0.754628 0.136964
  outer loop
    vertex -26.45033641592189 -36.40576470127439 4.458420321192739e-15
    vertex -23.69659523081629 -36.94728748331757 9.918130977756821
    vertex -30.63965813139823 -30.63965802045679 12.14177524007505
  endloop
endfacet
facet normal -0.341747 -0.752136 0.563473
  outer loop
    vertex -21.3048667671276 -33.14124297283953 21.74306018595718
    vertex -9.675003435839937 -37.28048484000881 23.27143653946526
    vertex -12.14177523935585 -30.63965813511141 30.63965801702862
  endloop
endfacet
facet normal -0.468281 -0.809072 0.355128
  outer loop
    vertex -21.3048667671276 -33.14124297283953 21.74306018595718
    vertex -23.69659523081629 -36.94728748331757 9.918130977756821
    vertex -15.25199475212652 -39.49371230663449 15.25199476533781
  endloop
endfacet
facet normal -0.3503 -0.811572 0.467591
  outer loop
    vertex -15.25199475212652 -39.49371230663449 15.25199476533781
    vertex -9.675003435839937 -37.28048484000881 23.27143653946526
    vertex -21.3048667671276 -33.14124297283953 21.74306018595718
  endloop
endfacet
facet normal -0.312377 -0.323685 0.893112
  outer loop
    vertex -11.06991273026584 -20.58471908581845 38.45421137277736
    vertex -9.78605410438262 -9.770824534509632 42.8224722894641
    vertex -20.02367858771535 -11.36757965440559 38.6630369812902
  endloop
endfacet
facet normal -0.822654 -0.395593 0.408346
  outer loop
    vertex -38.91320976063512 -19.25209109992403 11.83719115352278
    vertex -32.66255344605665 -22.15378309460199 21.61868397892943
    vertex -38.60483809784932 -11.27193699905149 20.18935144397303
  endloop
endfacet
facet normal 0.353133 -0.469664 -0.809143
  outer loop
    vertex 21.39829115046858 -22.17672062816972 -32.79186176507656
    vertex 9.672813510006151 -23.42752014161459 -37.1831679502283
    vertex 15.25199471837642 -15.25199471837845 -39.49371233780352
  endloop
endfacet
facet normal 0.981203 -0.155407 -0.114409
  outer loop
    vertex 42.79754322151621 -13.90576478308375 1.70296503312995e-15
    vertex 41.72120364007846 -11.92353066048608 -11.92353066048608
    vertex 45 0 0
  endloop
endfacet
facet normal 0.981203 -0.114409 -0.155407
  outer loop
    vertex 45 0 0
    vertex 41.72120364007846 -11.92353066048608 -11.92353066048608
    vertex 42.79754322151621 -2.554447549694926e-15 -13.90576478308375
  endloop
endfacet
facet normal 0.472375 -0.359552 -0.804726
  outer loop
    vertex 15.25199471837642 -15.25199471837845 -39.49371233780352
    vertex 23.37120683107545 -9.683068177916967 -37.21592242469485
    vertex 21.39829115046858 -22.17672062816972 -32.79186176507656
  endloop
endfacet
facet normal 0.34101 -0.568619 -0.748588
  outer loop
    vertex 11.94368912855073 -30.83207064601243 -30.52428065786052
    vertex 9.672813510006151 -23.42752014161459 -37.1831679502283
    vertex 21.39829115046858 -22.17672062816972 -32.79186176507656
  endloop
endfacet
facet normal 0.378285 -0.911053 -0.163959
  outer loop
    vertex 15.25199476719021 -39.49371230540933 -15.25199475344659
    vertex 23.69659506674265 -36.94728762447776 -9.918130843911113
    vertex 13.90576470410504 -42.79754324717794 5.241187434902688e-15
  endloop
endfacet
facet normal 0.704144 -0.0914433 -0.704144
  outer loop
    vertex 36.40576469758573 -4.858847975152045e-15 -26.4503364209989
    vertex 30.63965801568251 -12.14177524000512 -30.63965813620025
    vertex 26.450336280694 -6.687630499837122e-15 -36.4057647995232
  endloop
endfacet
facet normal 0.705054 -0.705054 -0.0761474
  outer loop
    vertex 26.450336280694 -36.4057647995232 4.458420333224748e-15
    vertex 30.81019725284452 -30.8402977447765 -11.16278550606188
    vertex 36.40576469758573 -26.4503364209989 3.239231983434696e-15
  endloop
endfacet
facet normal 0.0884423 -0.704336 -0.704336
  outer loop
    vertex 3.848826149738525e-15 -26.450336280694 -36.4057647995232
    vertex 11.94368912855073 -30.83207064601243 -30.52428065786052
    vertex 3.848826152087852e-15 -36.40576469758573 -26.45033642099889
  endloop
endfacet
facet normal 0.164864 -0.913071 -0.37299
  outer loop
    vertex 3.472076232444992e-15 -42.79754322151621 -13.90576478308375
    vertex 10.04271337342712 -37.11226785361121 -23.3842571586314
    vertex 15.25199476719021 -39.49371230540933 -15.25199475344659
  endloop
endfacet
facet normal 0.55887 -0.353825 -0.749981
  outer loop
    vertex 21.39829115046858 -22.17672062816972 -32.79186176507656
    vertex 23.37120683107545 -9.683068177916967 -37.21592242469485
    vertex 30.63965801568251 -12.14177524000512 -30.63965813620025
  endloop
endfacet
facet normal 0.165202 -0.370999 -0.91382
  outer loop
    vertex 15.25199471837642 -15.25199471837845 -39.49371233780352
    vertex 9.672813510006151 -23.42752014161459 -37.1831679502283
    vertex 3.472076229180268e-15 -13.90576470410505 -42.79754324717794
  endloop
endfacet
facet normal 0.370051 -0.165239 -0.914198
  outer loop
    vertex 23.37120683107545 -9.683068177916967 -37.21592242469485
    vertex 8.922255259865333 -8.583994542365375 -43.26324535647374
    vertex 13.90576470410504 -7.861781152354035e-15 -42.79754324717794
  endloop
endfacet
facet normal 0.37001 -0.165549 -0.914159
  outer loop
    vertex 15.25199471837642 -15.25199471837845 -39.49371233780352
    vertex 8.922255259865333 -8.583994542365375 -43.26324535647374
    vertex 23.37120683107545 -9.683068177916967 -37.21592242469485
  endloop
endfacet
facet normal 0.36063 -0.745864 -0.56003
  outer loop
    vertex 22.54717370905674 -32.3945249074887 -21.61526575713828
    vertex 10.04271337342712 -37.11226785361121 -23.3842571586314
    vertex 11.94368912855073 -30.83207064601243 -30.52428065786052
  endloop
endfacet
facet normal 0.362209 -0.917072 -0.166682
  outer loop
    vertex 13.90576470410504 -42.79754324717794 5.241187434902688e-15
    vertex 8.624442505595184 -43.3198450924027 -8.60290722011557
    vertex 15.25199476719021 -39.49371230540933 -15.25199475344659
  endloop
endfacet
facet normal 0.435865 -0.641498 -0.631271
  outer loop
    vertex 21.39829115046858 -22.17672062816972 -32.79186176507656
    vertex 22.54717370905674 -32.3945249074887 -21.61526575713828
    vertex 11.94368912855073 -30.83207064601243 -30.52428065786052
  endloop
endfacet
facet normal 0.166784 -0.917294 -0.361601
  outer loop
    vertex 15.25199476719021 -39.49371230540933 -15.25199475344659
    vertex 8.624442505595184 -43.3198450924027 -8.60290722011557
    vertex 3.472076232444992e-15 -42.79754322151621 -13.90576478308375
  endloop
endfacet
facet normal 0.167001 -0.3603 -0.917766
  outer loop
    vertex 3.472076229180268e-15 -13.90576470410505 -42.79754324717794
    vertex 8.922255259865333 -8.583994542365375 -43.26324535647374
    vertex 15.25199471837642 -15.25199471837845 -39.49371233780352
  endloop
endfacet
facet normal 0.77079 -0.325865 -0.547444
  outer loop
    vertex 38.42312797836386 -8.60625202453868 -21.78521660320127
    vertex 34.0044614247529 -21.12103521964965 -20.55720006379299
    vertex 30.63965801568251 -12.14177524000512 -30.63965813620025
  endloop
endfacet
facet normal 0.452637 -0.888349 -0.0771701
  outer loop
    vertex 13.90576470410504 -42.79754324717794 5.241187434902688e-15
    vertex 23.69659506674265 -36.94728762447776 -9.918130843911113
    vertex 26.450336280694 -36.4057647995232 4.458420333224748e-15
  endloop
endfacet
facet normal 0.075705 -0.88845 -0.452688
  outer loop
    vertex 3.848826152087852e-15 -36.40576469758573 -26.45033642099889
    vertex 10.04271337342712 -37.11226785361121 -23.3842571586314
    vertex 3.472076232444992e-15 -42.79754322151621 -13.90576478308375
  endloop
endfacet
facet normal 0.639243 -0.455865 -0.619319
  outer loop
    vertex 34.0044614247529 -21.12103521964965 -20.55720006379299
    vertex 21.39829115046858 -22.17672062816972 -32.79186176507656
    vertex 30.63965801568251 -12.14177524000512 -30.63965813620025
  endloop
endfacet
facet normal 0.070092 -0.452874 -0.888815
  outer loop
    vertex 3.472076229180268e-15 -13.90576470410505 -42.79754324717794
    vertex 9.672813510006151 -23.42752014161459 -37.1831679502283
    vertex 3.848826149738525e-15 -26.450336280694 -36.4057647995232
  endloop
endfacet
facet normal 0.851595 -0.339841 -0.399117
  outer loop
    vertex 41.72120364007846 -11.92353066048608 -11.92353066048608
    vertex 34.0044614247529 -21.12103521964965 -20.55720006379299
    vertex 38.42312797836386 -8.60625202453868 -21.78521660320127
  endloop
endfacet
facet normal 0.452888 -0.0696472 -0.888843
  outer loop
    vertex 26.450336280694 -6.687630499837122e-15 -36.4057647995232
    vertex 23.37120683107545 -9.683068177916967 -37.21592242469485
    vertex 13.90576470410504 -7.861781152354035e-15 -42.79754324717794
  endloop
endfacet
facet normal 0.368942 -0.801286 -0.470981
  outer loop
    vertex 15.25199476719021 -39.49371230540933 -15.25199475344659
    vertex 10.04271337342712 -37.11226785361121 -23.3842571586314
    vertex 22.54717370905674 -32.3945249074887 -21.61526575713828
  endloop
endfacet
facet normal 0.654648 -0.625478 -0.424515
  outer loop
    vertex 30.81019725284452 -30.8402977447765 -11.16278550606188
    vertex 22.54717370905674 -32.3945249074887 -21.61526575713828
    vertex 34.0044614247529 -21.12103521964965 -20.55720006379299
  endloop
endfacet
facet normal 0.601632 -0.557777 -0.571772
  outer loop
    vertex 34.0044614247529 -21.12103521964965 -20.55720006379299
    vertex 22.54717370905674 -32.3945249074887 -21.61526575713828
    vertex 21.39829115046858 -22.17672062816972 -32.79186176507656
  endloop
endfacet
facet normal 0.85278 -0.397588 -0.338659
  outer loop
    vertex 41.72120364007846 -11.92353066048608 -11.92353066048608
    vertex 38.24607098876078 -22.00060001773996 -8.843735227950392
    vertex 34.0044614247529 -21.12103521964965 -20.55720006379299
  endloop
endfacet
facet normal 0.764845 -0.559695 -0.318989
  outer loop
    vertex 34.0044614247529 -21.12103521964965 -20.55720006379299
    vertex 38.24607098876078 -22.00060001773996 -8.843735227950392
    vertex 30.81019725284452 -30.8402977447765 -11.16278550606188
  endloop
endfacet
facet normal 0.771761 -0.153593 -0.617086
  outer loop
    vertex 36.40576469758573 -4.858847975152045e-15 -26.4503364209989
    vertex 38.42312797836386 -8.60625202453868 -21.78521660320127
    vertex 30.63965801568251 -12.14177524000512 -30.63965813620025
  endloop
endfacet
facet normal 0.775608 -0.61376 -0.147417
  outer loop
    vertex 30.81019725284452 -30.8402977447765 -11.16278550606188
    vertex 38.24607098876078 -22.00060001773996 -8.843735227950392
    vertex 36.40576469758573 -26.4503364209989 3.239231983434696e-15
  endloop
endfacet
facet normal 0.0417176 -0.156298 -0.986828
  outer loop
    vertex 2.755455298081545e-15 -8.266365894244635e-15 -45
    vertex 8.922255259865333 -8.583994542365375 -43.26324535647374
    vertex 3.472076229180268e-15 -13.90576470410505 -42.79754324717794
  endloop
endfacet
facet normal 0.156326 -0.0372091 -0.987004
  outer loop
    vertex 13.90576470410504 -7.861781152354035e-15 -42.79754324717794
    vertex 8.922255259865333 -8.583994542365375 -43.26324535647374
    vertex 2.755455298081545e-15 -8.266365894244635e-15 -45
  endloop
endfacet
facet normal 0.0363468 -0.987036 -0.156331
  outer loop
    vertex 3.472076232444992e-15 -42.79754322151621 -13.90576478308375
    vertex 8.624442505595184 -43.3198450924027 -8.60290722011557
    vertex 2.755455298081545e-15 -45 5.51091059616309e-15
  endloop
endfacet
facet normal 0.156333 -0.987046 -0.0360468
  outer loop
    vertex 2.755455298081545e-15 -45 5.51091059616309e-15
    vertex 8.624442505595184 -43.3198450924027 -8.60290722011557
    vertex 13.90576470410504 -42.79754324717794 5.241187434902688e-15
  endloop
endfacet
facet normal 0.890183 -0.453571 -0.0429752
  outer loop
    vertex 36.40576469758573 -26.4503364209989 3.239231983434696e-15
    vertex 38.24607098876078 -22.00060001773996 -8.843735227950392
    vertex 42.79754322151621 -13.90576478308375 1.70296503312995e-15
  endloop
endfacet
facet normal 0.89039 -0.0372072 -0.453676
  outer loop
    vertex 42.79754322151621 -2.554447549694926e-15 -13.90576478308375
    vertex 38.42312797836386 -8.60625202453868 -21.78521660320127
    vertex 36.40576469758573 -4.858847975152045e-15 -26.4503364209989
  endloop
endfacet
facet normal 0.139603 -0.761655 -0.632766
  outer loop
    vertex 11.94368912855073 -30.83207064601243 -30.52428065786052
    vertex 10.04271337342712 -37.11226785361121 -23.3842571586314
    vertex 3.848826152087852e-15 -36.40576469758573 -26.45033642099889
  endloop
endfacet
facet normal 0.637989 -0.139513 -0.757302
  outer loop
    vertex 30.63965801568251 -12.14177524000512 -30.63965813620025
    vertex 23.37120683107545 -9.683068177916967 -37.21592242469485
    vertex 26.450336280694 -6.687630499837122e-15 -36.4057647995232
  endloop
endfacet
facet normal 0.138644 -0.638372 -0.757139
  outer loop
    vertex 3.848826149738525e-15 -26.450336280694 -36.4057647995232
    vertex 9.672813510006151 -23.42752014161459 -37.1831679502283
    vertex 11.94368912855073 -30.83207064601243 -30.52428065786052
  endloop
endfacet
facet normal 0.631948 -0.763377 -0.133779
  outer loop
    vertex 26.450336280694 -36.4057647995232 4.458420333224748e-15
    vertex 23.69659506674265 -36.94728762447776 -9.918130843911113
    vertex 30.81019725284452 -30.8402977447765 -11.16278550606188
  endloop
endfacet
facet normal 0.470283 -0.805816 -0.359853
  outer loop
    vertex 22.54717370905674 -32.3945249074887 -21.61526575713828
    vertex 23.69659506674265 -36.94728762447776 -9.918130843911113
    vertex 15.25199476719021 -39.49371230540933 -15.25199475344659
  endloop
endfacet
facet normal 0.9213 -0.3615 -0.143264
  outer loop
    vertex 42.79754322151621 -13.90576478308375 1.70296503312995e-15
    vertex 38.24607098876078 -22.00060001773996 -8.843735227950392
    vertex 41.72120364007846 -11.92353066048608 -11.92353066048608
  endloop
endfacet
facet normal 0.57589 -0.741139 -0.345056
  outer loop
    vertex 30.81019725284452 -30.8402977447765 -11.16278550606188
    vertex 23.69659506674265 -36.94728762447776 -9.918130843911113
    vertex 22.54717370905674 -32.3945249074887 -21.61526575713828
  endloop
endfacet
facet normal 0.923245 -0.142649 -0.356748
  outer loop
    vertex 41.72120364007846 -11.92353066048608 -11.92353066048608
    vertex 38.42312797836386 -8.60625202453868 -21.78521660320127
    vertex 42.79754322151621 -2.554447549694926e-15 -13.90576478308375
  endloop
endfacet
facet normal -0.568448 -0.749387 -0.339536
  outer loop
    vertex -31.74111685348015 -29.94303182807576 -10.99619688058377
    vertex -22.78942796733502 -31.36494992588636 -22.84473438384192
    vertex -20.02367856329517 -38.66303704503751 -11.36757948060583
  endloop
endfacet
facet normal -0.591107 -0.786716 -0.177963
  outer loop
    vertex -26.45033641592189 -36.40576470127439 4.458420321192739e-15
    vertex -31.74111685348015 -29.94303182807576 -10.99619688058377
    vertex -20.02367856329517 -38.66303704503751 -11.36757948060583
  endloop
endfacet
facet normal -0.343287 -0.757033 -0.555928
  outer loop
    vertex -11.54047683549351 -30.39431981954166 -31.11274203789911
    vertex -10.85851386671194 -38.71821640380318 -20.19882162688433
    vertex -22.78942796733502 -31.36494992588636 -22.84473438384192
  endloop
endfacet
facet normal -0.407657 -0.811845 -0.417999
  outer loop
    vertex -22.78942796733502 -31.36494992588636 -22.84473438384192
    vertex -10.85851386671194 -38.71821640380318 -20.19882162688433
    vertex -20.02367856329517 -38.66303704503751 -11.36757948060583
  endloop
endfacet
facet normal -0.424052 -0.629725 -0.650866
  outer loop
    vertex -22.78942796733502 -31.36494992588636 -22.84473438384192
    vertex -22.43570630603822 -21.73684358919115 -32.39056519000921
    vertex -11.54047683549351 -30.39431981954166 -31.11274203789911
  endloop
endfacet
facet normal -0.452554 -0.888188 -0.079483
  outer loop
    vertex -26.45033641592189 -36.40576470127439 4.458420321192739e-15
    vertex -20.02367856329517 -38.66303704503751 -11.36757948060583
    vertex -13.90576478007464 -42.79754322249392 5.241187431879768e-15
  endloop
endfacet
facet normal -0.704144 -0.0914433 -0.704144
  outer loop
    vertex -26.45033642099889 -3.448398497676816e-15 -36.40576469758573
    vertex -30.63965813553285 -12.14177523899816 -30.63965801674892
    vertex -36.4057647995232 -4.004276161537056e-16 -26.450336280694
  endloop
endfacet
facet normal -0.798006 -0.180593 -0.574955
  outer loop
    vertex -30.63965813553285 -12.14177523899816 -30.63965801674892
    vertex -38.91320976204508 -11.83719115159578 -19.25209109825898
    vertex -36.4057647995232 -4.004276161537056e-16 -26.450336280694
  endloop
endfacet
facet normal -0.888285 -0.452604 -0.0781003
  outer loop
    vertex -42.79754324602812 -13.90576470764383 1.702965023891226e-15
    vertex -38.60483822886177 -20.18935131335397 -11.27193678430577
    vertex -36.4057647964417 -26.45033628493533 3.239231966771715e-15
  endloop
endfacet
facet normal -0.0877625 -0.452239 -0.887569
  outer loop
    vertex 3.848826149738525e-15 -26.450336280694 -36.4057647995232
    vertex -11.90254475380671 -19.6731270990195 -38.68200484113321
    vertex 3.472076229180268e-15 -13.90576470410505 -42.79754324717794
  endloop
endfacet
facet normal -0.0823772 -0.704703 -0.704703
  outer loop
    vertex 3.848826152087852e-15 -36.40576469758573 -26.45033642099889
    vertex -11.54047683549351 -30.39431981954166 -31.11274203789911
    vertex 3.848826149738525e-15 -26.450336280694 -36.4057647995232
  endloop
endfacet
facet normal -0.590446 -0.557193 -0.583875
  outer loop
    vertex -22.78942796733502 -31.36494992588636 -22.84473438384192
    vertex -32.64510183716373 -21.64045287950347 -22.15825185368195
    vertex -22.43570630603822 -21.73684358919115 -32.39056519000921
  endloop
endfacet
facet normal -0.887628 -0.0870025 -0.452269
  outer loop
    vertex -36.4057647995232 -4.004276161537056e-16 -26.450336280694
    vertex -38.91320976204508 -11.83719115159578 -19.25209109825898
    vertex -42.79754324717794 2.686739899715915e-15 -13.90576470410505
  endloop
endfacet
facet normal -0.172329 -0.572001 -0.801946
  outer loop
    vertex 3.848826149738525e-15 -26.450336280694 -36.4057647995232
    vertex -11.54047683549351 -30.39431981954166 -31.11274203789911
    vertex -11.90254475380671 -19.6731270990195 -38.68200484113321
  endloop
endfacet
facet normal -0.652825 -0.632169 -0.417351
  outer loop
    vertex -31.74111685348015 -29.94303182807576 -10.99619688058377
    vertex -32.64510183716373 -21.64045287950347 -22.15825185368195
    vertex -22.78942796733502 -31.36494992588636 -22.84473438384192
  endloop
endfacet
facet normal -0.640537 -0.43179 -0.635035
  outer loop
    vertex -22.43570630603822 -21.73684358919115 -32.39056519000921
    vertex -32.64510183716373 -21.64045287950347 -22.15825185368195
    vertex -30.63965813553285 -12.14177523899816 -30.63965801674892
  endloop
endfacet
facet normal -0.895466 -0.324345 -0.304862
  outer loop
    vertex -42.70068392471489 -9.994203956182444 -10.08798689748468
    vertex -38.91320976204508 -11.83719115159578 -19.25209109825898
    vertex -38.60483822886177 -20.18935131335397 -11.27193678430577
  endloop
endfacet
facet normal -0.346825 -0.548742 -0.760654
  outer loop
    vertex -11.54047683549351 -30.39431981954166 -31.11274203789911
    vertex -22.43570630603822 -21.73684358919115 -32.39056519000921
    vertex -11.90254475380671 -19.6731270990195 -38.68200484113321
  endloop
endfacet
facet normal -0.0714399 -0.88873 -0.452831
  outer loop
    vertex 3.472076232444992e-15 -42.79754322151621 -13.90576478308375
    vertex -10.85851386671194 -38.71821640380318 -20.19882162688433
    vertex 3.848826152087852e-15 -36.40576469758573 -26.45033642099889
  endloop
endfacet
facet normal -0.45278 -0.0729814 -0.88863
  outer loop
    vertex -13.90576478308375 -6.1588161145101e-15 -42.79754322151621
    vertex -20.00936427029714 -10.96225303073691 -38.78729624488739
    vertex -26.45033642099889 -3.448398497676816e-15 -36.40576469758573
  endloop
endfacet
facet normal -0.705107 -0.705107 -0.0751489
  outer loop
    vertex -36.4057647964417 -26.45033628493533 3.239231966771715e-15
    vertex -31.74111685348015 -29.94303182807576 -10.99619688058377
    vertex -26.45033641592189 -36.40576470127439 4.458420321192739e-15
  endloop
endfacet
facet normal -0.062989 -0.985727 -0.156124
  outer loop
    vertex 2.755455298081545e-15 -45 5.51091059616309e-15
    vertex -9.770928201646898 -42.83299868715962 -9.739773382581539
    vertex 3.472076232444992e-15 -42.79754322151621 -13.90576478308375
  endloop
endfacet
facet normal -0.923706 -0.354119 -0.146176
  outer loop
    vertex -42.79754324602812 -13.90576470764383 1.702965023891226e-15
    vertex -42.70068392471489 -9.994203956182444 -10.08798689748468
    vertex -38.60483822886177 -20.18935131335397 -11.27193678430577
  endloop
endfacet
facet normal -0.051066 -0.15623 -0.9864
  outer loop
    vertex 3.472076229180268e-15 -13.90576470410505 -42.79754324717794
    vertex -9.24819513826672 -9.265410702797309 -43.05372284940095
    vertex 2.755455298081545e-15 -8.266365894244635e-15 -45
  endloop
endfacet
facet normal -0.156127 -0.985745 -0.0626923
  outer loop
    vertex -13.90576478007464 -42.79754322249392 5.241187431879768e-15
    vertex -9.770928201646898 -42.83299868715962 -9.739773382581539
    vertex 2.755455298081545e-15 -45 5.51091059616309e-15
  endloop
endfacet
facet normal -0.156229 -0.0512609 -0.98639
  outer loop
    vertex 2.755455298081545e-15 -8.266365894244635e-15 -45
    vertex -9.24819513826672 -9.265410702797309 -43.05372284940095
    vertex -13.90576478308375 -6.1588161145101e-15 -42.79754322151621
  endloop
endfacet
facet normal -0.924445 -0.143857 -0.353137
  outer loop
    vertex -42.79754324717794 2.686739899715915e-15 -13.90576470410505
    vertex -38.91320976204508 -11.83719115159578 -19.25209109825898
    vertex -42.70068392471489 -9.994203956182444 -10.08798689748468
  endloop
endfacet
facet normal -0.172099 -0.788424 -0.590567
  outer loop
    vertex 3.848826152087852e-15 -36.40576469758573 -26.45033642099889
    vertex -10.85851386671194 -38.71821640380318 -20.19882162688433
    vertex -11.54047683549351 -30.39431981954166 -31.11274203789911
  endloop
endfacet
facet normal -0.76831 -0.328373 -0.549427
  outer loop
    vertex -30.63965813553285 -12.14177523899816 -30.63965801674892
    vertex -32.64510183716373 -21.64045287950347 -22.15825185368195
    vertex -38.91320976204508 -11.83719115159578 -19.25209109825898
  endloop
endfacet
facet normal -0.586978 -0.173065 -0.790889
  outer loop
    vertex -26.45033642099889 -3.448398497676816e-15 -36.40576469758573
    vertex -20.00936427029714 -10.96225303073691 -38.78729624488739
    vertex -30.63965813553285 -12.14177523899816 -30.63965801674892
  endloop
endfacet
facet normal -0.805115 -0.571091 -0.16014
  outer loop
    vertex -38.60483822886177 -20.18935131335397 -11.27193678430577
    vertex -31.74111685348015 -29.94303182807576 -10.99619688058377
    vertex -36.4057647964417 -26.45033628493533 3.239231966771715e-15
  endloop
endfacet
facet normal -0.413061 -0.39434 -0.8209
  outer loop
    vertex -11.90254475380671 -19.6731270990195 -38.68200484113321
    vertex -22.43570630603822 -21.73684358919115 -32.39056519000921
    vertex -20.00936427029714 -10.96225303073691 -38.78729624488739
  endloop
endfacet
facet normal -0.344346 -0.147461 -0.92719
  outer loop
    vertex -13.90576478308375 -6.1588161145101e-15 -42.79754322151621
    vertex -9.24819513826672 -9.265410702797309 -43.05372284940095
    vertex -20.00936427029714 -10.96225303073691 -38.78729624488739
  endloop
endfacet
facet normal -0.763024 -0.546694 -0.344847
  outer loop
    vertex -38.60483822886177 -20.18935131335397 -11.27193678430577
    vertex -32.64510183716373 -21.64045287950347 -22.15825185368195
    vertex -31.74111685348015 -29.94303182807576 -10.99619688058377
  endloop
endfacet
facet normal -0.145474 -0.925735 -0.349074
  outer loop
    vertex 3.472076232444992e-15 -42.79754322151621 -13.90576478308375
    vertex -9.770928201646898 -42.83299868715962 -9.739773382581539
    vertex -10.85851386671194 -38.71821640380318 -20.19882162688433
  endloop
endfacet
facet normal -0.150058 -0.350109 -0.924611
  outer loop
    vertex -11.90254475380671 -19.6731270990195 -38.68200484113321
    vertex -9.24819513826672 -9.265410702797309 -43.05372284940095
    vertex 3.472076229180268e-15 -13.90576470410505 -42.79754324717794
  endloop
endfacet
facet normal -0.352665 -0.924234 -0.146353
  outer loop
    vertex -20.02367856329517 -38.66303704503751 -11.36757948060583
    vertex -9.770928201646898 -42.83299868715962 -9.739773382581539
    vertex -13.90576478007464 -42.79754322249392 5.241187431879768e-15
  endloop
endfacet
facet normal -0.985268 -0.156051 -0.0699679
  outer loop
    vertex -45 5.51091059616309e-15 0
    vertex -42.70068392471489 -9.994203956182444 -10.08798689748468
    vertex -42.79754324602812 -13.90576470764383 1.702965023891226e-15
  endloop
endfacet
facet normal -0.985323 -0.069164 -0.15606
  outer loop
    vertex -42.79754324717794 2.686739899715915e-15 -13.90576470410505
    vertex -42.70068392471489 -9.994203956182444 -10.08798689748468
    vertex -45 5.51091059616309e-15 0
  endloop
endfacet
facet normal -0.310387 -0.299767 -0.902109
  outer loop
    vertex -20.00936427029714 -10.96225303073691 -38.78729624488739
    vertex -9.24819513826672 -9.265410702797309 -43.05372284940095
    vertex -11.90254475380671 -19.6731270990195 -38.68200484113321
  endloop
endfacet
facet normal -0.550635 -0.330963 -0.766332
  outer loop
    vertex -20.00936427029714 -10.96225303073691 -38.78729624488739
    vertex -22.43570630603822 -21.73684358919115 -32.39056519000921
    vertex -30.63965813553285 -12.14177523899816 -30.63965801674892
  endloop
endfacet
facet normal -0.313081 -0.894432 -0.31933
  outer loop
    vertex -10.85851386671194 -38.71821640380318 -20.19882162688433
    vertex -9.770928201646898 -42.83299868715962 -9.739773382581539
    vertex -20.02367856329517 -38.66303704503751 -11.36757948060583
  endloop
endfacet
facet normal -0.822459 -0.408538 -0.395801
  outer loop
    vertex -38.91320976204508 -11.83719115159578 -19.25209109825898
    vertex -32.64510183716373 -21.64045287950347 -22.15825185368195
    vertex -38.60483822886177 -20.18935131335397 -11.27193678430577
  endloop
endfacet
facet normal 0.353133 0.809143 -0.469664
  outer loop
    vertex 21.39829115031361 32.79186176926245 -22.17672062212971
    vertex 9.67281350378329 37.18316795534108 -23.42752013606911
    vertex 15.25199472006338 39.49371233673836 -15.25199471944962
  endloop
endfacet
facet normal 0.981203 0.114409 -0.155407
  outer loop
    vertex 42.79754322151621 -2.554447549694926e-15 -13.90576478308375
    vertex 41.72120364007846 11.92353066048608 -11.92353066048608
    vertex 45 0 0
  endloop
endfacet
facet normal 0.981203 0.155407 -0.114409
  outer loop
    vertex 45 0 0
    vertex 41.72120364007846 11.92353066048608 -11.92353066048608
    vertex 42.79754322151621 13.90576478308375 0
  endloop
endfacet
facet normal 0.472375 0.804726 -0.359552
  outer loop
    vertex 15.25199472006338 39.49371233673836 -15.25199471944962
    vertex 23.37120683320486 37.21592241224415 -9.683068220630359
    vertex 21.39829115031361 32.79186176926245 -22.17672062212971
  endloop
endfacet
facet normal 0.34101 0.748588 -0.568619
  outer loop
    vertex 11.94368913786777 30.52428065411252 -30.83207064611379
    vertex 9.67281350378329 37.18316795534108 -23.42752013606911
    vertex 21.39829115031361 32.79186176926245 -22.17672062212971
  endloop
endfacet
facet normal 0.378285 0.163959 -0.911053
  outer loop
    vertex 15.25199476533048 15.25199475211045 -39.49371230664353
    vertex 23.69659506699878 9.918130844957782 -36.94728762403251
    vertex 13.90576470410504 -7.861781152354035e-15 -42.79754324717794
  endloop
endfacet
facet normal 0.704144 0.704144 -0.0914433
  outer loop
    vertex 36.40576469758573 26.4503364209989 0
    vertex 30.6396580156825 30.63965813620025 -12.14177524000511
    vertex 26.450336280694 36.4057647995232 0
  endloop
endfacet
facet normal 0.705054 0.0761474 -0.705054
  outer loop
    vertex 26.450336280694 -6.687630499837122e-15 -36.4057647995232
    vertex 30.81019725735793 11.16278549730322 -30.84029774343774
    vertex 36.40576469758573 -4.858847975152045e-15 -26.4503364209989
  endloop
endfacet
facet normal 0.0884423 0.704336 -0.704336
  outer loop
    vertex 3.848826149809544e-15 36.40576479644169 -26.45033628493533
    vertex 11.94368913786777 30.52428065411252 -30.83207064611379
    vertex 3.84882615200284e-15 26.45033641592188 -36.4057647012744
  endloop
endfacet
facet normal 0.164864 0.37299 -0.913071
  outer loop
    vertex 3.472076232320604e-15 13.90576478007463 -42.79754322249392
    vertex 10.04271340038408 23.38425715688578 -37.11226784741648
    vertex 15.25199476533048 15.25199475211045 -39.49371230664353
  endloop
endfacet
facet normal 0.55887 0.749981 -0.353825
  outer loop
    vertex 21.39829115031361 32.79186176926245 -22.17672062212971
    vertex 23.37120683320486 37.21592241224415 -9.683068220630359
    vertex 30.6396580156825 30.63965813620025 -12.14177524000511
  endloop
endfacet
facet normal 0.165202 0.91382 -0.370999
  outer loop
    vertex 15.25199472006338 39.49371233673836 -15.25199471944962
    vertex 9.67281350378329 37.18316795534108 -23.42752013606911
    vertex 3.472076229326551e-15 42.79754324602812 -13.90576470764384
  endloop
endfacet
facet normal 0.370051 0.914198 -0.165239
  outer loop
    vertex 23.37120683320486 37.21592241224415 -9.683068220630359
    vertex 8.922255259968038 43.26324535618281 -8.583994543724948
    vertex 13.90576470410504 42.79754324717794 0
  endloop
endfacet
facet normal 0.37001 0.914159 -0.165549
  outer loop
    vertex 15.25199472006338 39.49371233673836 -15.25199471944962
    vertex 8.922255259968038 43.26324535618281 -8.583994543724948
    vertex 23.37120683320486 37.21592241224415 -9.683068220630359
  endloop
endfacet
facet normal 0.36063 0.56003 -0.745864
  outer loop
    vertex 22.54717371716684 21.6152657514527 -32.39452490563763
    vertex 10.04271340038408 23.38425715688578 -37.11226784741648
    vertex 11.94368913786777 30.52428065411252 -30.83207064611379
  endloop
endfacet
facet normal 0.362209 0.166682 -0.917072
  outer loop
    vertex 13.90576470410504 -7.861781152354035e-15 -42.79754324717794
    vertex 8.62444250845645 8.602907192654488 -43.31984509728657
    vertex 15.25199476533048 15.25199475211045 -39.49371230664353
  endloop
endfacet
facet normal 0.435865 0.631271 -0.641498
  outer loop
    vertex 21.39829115031361 32.79186176926245 -22.17672062212971
    vertex 22.54717371716684 21.6152657514527 -32.39452490563763
    vertex 11.94368913786777 30.52428065411252 -30.83207064611379
  endloop
endfacet
facet normal 0.166784 0.361601 -0.917294
  outer loop
    vertex 15.25199476533048 15.25199475211045 -39.49371230664353
    vertex 8.62444250845645 8.602907192654488 -43.31984509728657
    vertex 3.472076232320604e-15 13.90576478007463 -42.79754322249392
  endloop
endfacet
facet normal 0.167001 0.917766 -0.3603
  outer loop
    vertex 3.472076229326551e-15 42.79754324602812 -13.90576470764384
    vertex 8.922255259968038 43.26324535618281 -8.583994543724948
    vertex 15.25199472006338 39.49371233673836 -15.25199471944962
  endloop
endfacet
facet normal 0.77079 0.547444 -0.325865
  outer loop
    vertex 38.4231279760162 21.78521660694969 -8.60625202553147
    vertex 34.00446142514254 20.55720006346754 -21.12103521933912
    vertex 30.6396580156825 30.63965813620025 -12.14177524000511
  endloop
endfacet
facet normal 0.452637 0.0771701 -0.888349
  outer loop
    vertex 13.90576470410504 -7.861781152354035e-15 -42.79754324717794
    vertex 23.69659506699878 9.918130844957782 -36.94728762403251
    vertex 26.450336280694 -6.687630499837122e-15 -36.4057647995232
  endloop
endfacet
facet normal 0.075705 0.452688 -0.88845
  outer loop
    vertex 3.84882615200284e-15 26.45033641592188 -36.4057647012744
    vertex 10.04271340038408 23.38425715688578 -37.11226784741648
    vertex 3.472076232320604e-15 13.90576478007463 -42.79754322249392
  endloop
endfacet
facet normal 0.639243 0.619319 -0.455865
  outer loop
    vertex 34.00446142514254 20.55720006346754 -21.12103521933912
    vertex 21.39829115031361 32.79186176926245 -22.17672062212971
    vertex 30.6396580156825 30.63965813620025 -12.14177524000511
  endloop
endfacet
facet normal 0.070092 0.888815 -0.452874
  outer loop
    vertex 3.472076229326551e-15 42.79754324602812 -13.90576470764384
    vertex 9.67281350378329 37.18316795534108 -23.42752013606911
    vertex 3.848826149809544e-15 36.40576479644169 -26.45033628493533
  endloop
endfacet
facet normal 0.851595 0.399117 -0.339841
  outer loop
    vertex 41.72120364007846 11.92353066048608 -11.92353066048608
    vertex 34.00446142514254 20.55720006346754 -21.12103521933912
    vertex 38.4231279760162 21.78521660694969 -8.60625202553147
  endloop
endfacet
facet normal 0.452888 0.888843 -0.0696472
  outer loop
    vertex 26.450336280694 36.4057647995232 0
    vertex 23.37120683320486 37.21592241224415 -9.683068220630359
    vertex 13.90576470410504 42.79754324717794 0
  endloop
endfacet
facet normal 0.368942 0.470981 -0.801286
  outer loop
    vertex 15.25199476533048 15.25199475211045 -39.49371230664353
    vertex 10.04271340038408 23.38425715688578 -37.11226784741648
    vertex 22.54717371716684 21.6152657514527 -32.39452490563763
  endloop
endfacet
facet normal 0.654648 0.424515 -0.625478
  outer loop
    vertex 30.81019725735793 11.16278549730322 -30.84029774343774
    vertex 22.54717371716684 21.6152657514527 -32.39452490563763
    vertex 34.00446142514254 20.55720006346754 -21.12103521933912
  endloop
endfacet
facet normal 0.601632 0.571772 -0.557777
  outer loop
    vertex 34.00446142514254 20.55720006346754 -21.12103521933912
    vertex 22.54717371716684 21.6152657514527 -32.39452490563763
    vertex 21.39829115031361 32.79186176926245 -22.17672062212971
  endloop
endfacet
facet normal 0.85278 0.338659 -0.397588
  outer loop
    vertex 41.72120364007846 11.92353066048608 -11.92353066048608
    vertex 38.24607104258296 8.843735129816089 -22.00059996362267
    vertex 34.00446142514254 20.55720006346754 -21.12103521933912
  endloop
endfacet
facet normal 0.764845 0.318989 -0.559695
  outer loop
    vertex 34.00446142514254 20.55720006346754 -21.12103521933912
    vertex 38.24607104258296 8.843735129816089 -22.00059996362267
    vertex 30.81019725735793 11.16278549730322 -30.84029774343774
  endloop
endfacet
facet normal 0.771761 0.617086 -0.153593
  outer loop
    vertex 36.40576469758573 26.4503364209989 0
    vertex 38.4231279760162 21.78521660694969 -8.60625202553147
    vertex 30.6396580156825 30.63965813620025 -12.14177524000511
  endloop
endfacet
facet normal 0.775608 0.147417 -0.61376
  outer loop
    vertex 30.81019725735793 11.16278549730322 -30.84029774343774
    vertex 38.24607104258296 8.843735129816089 -22.00059996362267
    vertex 36.40576469758573 -4.858847975152045e-15 -26.4503364209989
  endloop
endfacet
facet normal 0.0417176 0.986828 -0.156298
  outer loop
    vertex 2.755455298081545e-15 45 0
    vertex 8.922255259968038 43.26324535618281 -8.583994543724948
    vertex 3.472076229326551e-15 42.79754324602812 -13.90576470764384
  endloop
endfacet
facet normal 0.156326 0.987004 -0.0372091
  outer loop
    vertex 13.90576470410504 42.79754324717794 0
    vertex 8.922255259968038 43.26324535618281 -8.583994543724948
    vertex 2.755455298081545e-15 45 0
  endloop
endfacet
facet normal 0.0363468 0.156331 -0.987036
  outer loop
    vertex 3.472076232320604e-15 13.90576478007463 -42.79754322249392
    vertex 8.62444250845645 8.602907192654488 -43.31984509728657
    vertex 2.755455298081545e-15 -8.266365894244635e-15 -45
  endloop
endfacet
facet normal 0.156333 0.0360468 -0.987046
  outer loop
    vertex 2.755455298081545e-15 -8.266365894244635e-15 -45
    vertex 8.62444250845645 8.602907192654488 -43.31984509728657
    vertex 13.90576470410504 -7.861781152354035e-15 -42.79754324717794
  endloop
endfacet
facet normal 0.890183 0.0429752 -0.453571
  outer loop
    vertex 36.40576469758573 -4.858847975152045e-15 -26.4503364209989
    vertex 38.24607104258296 8.843735129816089 -22.00059996362267
    vertex 42.79754322151621 -2.554447549694926e-15 -13.90576478308375
  endloop
endfacet
facet normal 0.89039 0.453676 -0.0372072
  outer loop
    vertex 42.79754322151621 13.90576478308375 0
    vertex 38.4231279760162 21.78521660694969 -8.60625202553147
    vertex 36.40576469758573 26.4503364209989 0
  endloop
endfacet
facet normal 0.139603 0.632766 -0.761655
  outer loop
    vertex 11.94368913786777 30.52428065411252 -30.83207064611379
    vertex 10.04271340038408 23.38425715688578 -37.11226784741648
    vertex 3.84882615200284e-15 26.45033641592188 -36.4057647012744
  endloop
endfacet
facet normal 0.637989 0.757302 -0.139513
  outer loop
    vertex 30.6396580156825 30.63965813620025 -12.14177524000511
    vertex 23.37120683320486 37.21592241224415 -9.683068220630359
    vertex 26.450336280694 36.4057647995232 0
  endloop
endfacet
facet normal 0.138644 0.757139 -0.638372
  outer loop
    vertex 3.848826149809544e-15 36.40576479644169 -26.45033628493533
    vertex 9.67281350378329 37.18316795534108 -23.42752013606911
    vertex 11.94368913786777 30.52428065411252 -30.83207064611379
  endloop
endfacet
facet normal 0.631948 0.133779 -0.763377
  outer loop
    vertex 26.450336280694 -6.687630499837122e-15 -36.4057647995232
    vertex 23.69659506699878 9.918130844957782 -36.94728762403251
    vertex 30.81019725735793 11.16278549730322 -30.84029774343774
  endloop
endfacet
facet normal 0.470283 0.359853 -0.805816
  outer loop
    vertex 22.54717371716684 21.6152657514527 -32.39452490563763
    vertex 23.69659506699878 9.918130844957782 -36.94728762403251
    vertex 15.25199476533048 15.25199475211045 -39.49371230664353
  endloop
endfacet
facet normal 0.9213 0.143264 -0.3615
  outer loop
    vertex 42.79754322151621 -2.554447549694926e-15 -13.90576478308375
    vertex 38.24607104258296 8.843735129816089 -22.00059996362267
    vertex 41.72120364007846 11.92353066048608 -11.92353066048608
  endloop
endfacet
facet normal 0.57589 0.345056 -0.741139
  outer loop
    vertex 30.81019725735793 11.16278549730322 -30.84029774343774
    vertex 23.69659506699878 9.918130844957782 -36.94728762403251
    vertex 22.54717371716684 21.6152657514527 -32.39452490563763
  endloop
endfacet
facet normal 0.923245 0.356748 -0.142649
  outer loop
    vertex 41.72120364007846 11.92353066048608 -11.92353066048608
    vertex 38.4231279760162 21.78521660694969 -8.60625202553147
    vertex 42.79754322151621 13.90576478308375 0
  endloop
endfacet
facet normal -0.568578 0.338872 -0.74959
  outer loop
    vertex -31.74111691987392 10.99619684237534 -29.9430317717266
    vertex -23.87353227763321 22.82300097473308 -30.56411430249759
    vertex -20.02367868966154 11.36757965282815 -38.66303692895582
  endloop
endfacet
facet normal -0.591107 0.177963 -0.786716
  outer loop
    vertex -26.45033642099889 -3.448398497676816e-15 -36.40576469758573
    vertex -31.74111691987392 10.99619684237534 -29.9430317717266
    vertex -20.02367868966154 11.36757965282815 -38.66303692895582
  endloop
endfacet
facet normal -0.626333 0.642439 -0.441563
  outer loop
    vertex -30.63965813553286 30.63965801674892 -12.14177523899816
    vertex -21.30486672034265 33.1412429585217 -21.7430602536228
    vertex -32.66255344258451 22.15378308438146 -21.61868399464881
  endloop
endfacet
facet normal -0.368424 0.545681 -0.752659
  outer loop
    vertex -12.1417752404327 30.63965813097681 -30.63965802073649
    vertex -11.06991267860301 20.58471921223505 -38.45421131997827
    vertex -23.87353227763321 22.82300097473308 -30.56411430249759
  endloop
endfacet
facet normal -0.590469 0.60431 -0.534936
  outer loop
    vertex -32.66255344258451 22.15378308438146 -21.61868399464881
    vertex -21.30486672034265 33.1412429585217 -21.7430602536228
    vertex -23.87353227763321 22.82300097473308 -30.56411430249759
  endloop
endfacet
facet normal -0.419589 0.425762 -0.801668
  outer loop
    vertex -23.87353227763321 22.82300097473308 -30.56411430249759
    vertex -11.06991267860301 20.58471921223505 -38.45421131997827
    vertex -20.02367868966154 11.36757965282815 -38.66303692895582
  endloop
endfacet
facet normal -0.378285 0.911053 -0.163959
  outer loop
    vertex -15.25199475514963 39.49371230433513 -15.25199476826873
    vertex -23.69659516826516 36.94728753936874 -9.918130918401896
    vertex -13.90576478308375 42.79754322151621 0
  endloop
endfacet
facet normal -0.452554 0.079483 -0.888188
  outer loop
    vertex -26.45033642099889 -3.448398497676816e-15 -36.40576469758573
    vertex -20.02367868966154 11.36757965282815 -38.66303692895582
    vertex -13.90576478308375 -6.1588161145101e-15 -42.79754322151621
  endloop
endfacet
facet normal -0.798006 0.574955 -0.180593
  outer loop
    vertex -30.63965813553286 30.63965801674892 -12.14177523899816
    vertex -38.91320976199888 19.25209109839463 -11.83719115152704
    vertex -36.4057647995232 26.450336280694 0
  endloop
endfacet
facet normal -0.704144 0.704144 -0.0914433
  outer loop
    vertex -26.45033642099889 36.40576469758573 0
    vertex -30.63965813553286 30.63965801674892 -12.14177523899816
    vertex -36.4057647995232 26.450336280694 0
  endloop
endfacet
facet normal -0.0914433 0.704144 -0.704144
  outer loop
    vertex 3.84882615200284e-15 26.45033641592188 -36.4057647012744
    vertex -12.1417752404327 30.63965813097681 -30.63965802073649
    vertex 3.848826149809544e-15 36.40576479644169 -26.45033628493533
  endloop
endfacet
facet normal -0.888285 0.0781003 -0.452604
  outer loop
    vertex -42.79754324717794 2.686739899715915e-15 -13.90576470410505
    vertex -38.60483831344367 11.27193667260786 -20.18935121398381
    vertex -36.4057647995232 -4.004276161537056e-16 -26.450336280694
  endloop
endfacet
facet normal -0.165744 0.915018 -0.367793
  outer loop
    vertex 3.472076229326551e-15 42.79754324602812 -13.90576470764384
    vertex -9.675003395357987 37.28048480295995 -23.27143661564717
    vertex -15.25199475514963 39.49371230433513 -15.25199476826873
  endloop
endfacet
facet normal -0.887628 0.452269 -0.0870025
  outer loop
    vertex -36.4057647995232 26.450336280694 0
    vertex -38.91320976199888 19.25209109839463 -11.83719115152704
    vertex -42.79754324717794 13.90576470410505 0
  endloop
endfacet
facet normal -0.665717 0.41012 -0.623396
  outer loop
    vertex -31.74111691987392 10.99619684237534 -29.9430317717266
    vertex -32.66255344258451 22.15378308438146 -21.61868399464881
    vertex -23.87353227763321 22.82300097473308 -30.56411430249759
  endloop
endfacet
facet normal -0.362209 0.917072 -0.166682
  outer loop
    vertex -13.90576478308375 42.79754322151621 0
    vertex -8.624442547900529 43.31984510752078 -8.602907101577397
    vertex -15.25199475514963 39.49371230433513 -15.25199476826873
  endloop
endfacet
facet normal -0.166784 0.917294 -0.361601
  outer loop
    vertex -15.25199475514963 39.49371230433513 -15.25199476826873
    vertex -8.624442547900529 43.31984510752078 -8.602907101577397
    vertex 3.472076229326551e-15 42.79754324602812 -13.90576470764384
  endloop
endfacet
facet normal -0.895466 0.304862 -0.324345
  outer loop
    vertex -42.7006839407377 10.08798678482829 -9.994204001437806
    vertex -38.91320976199888 19.25209109839463 -11.83719115152704
    vertex -38.60483831344367 11.27193667260786 -20.18935121398381
  endloop
endfacet
facet normal -0.434061 0.645393 -0.628537
  outer loop
    vertex -23.87353227763321 22.82300097473308 -30.56411430249759
    vertex -21.30486672034265 33.1412429585217 -21.7430602536228
    vertex -12.1417752404327 30.63965813097681 -30.63965802073649
  endloop
endfacet
facet normal -0.452637 0.888349 -0.0771701
  outer loop
    vertex -13.90576478308375 42.79754322151621 0
    vertex -23.69659516826516 36.94728753936874 -9.918130918401896
    vertex -26.45033642099889 36.40576469758573 0
  endloop
endfacet
facet normal -0.0754628 0.452696 -0.888466
  outer loop
    vertex 3.472076232320604e-15 13.90576478007463 -42.79754322249392
    vertex -11.06991267860301 20.58471921223505 -38.45421131997827
    vertex 3.84882615200284e-15 26.45033641592188 -36.4057647012744
  endloop
endfacet
facet normal -0.705107 0.0751489 -0.705107
  outer loop
    vertex -36.4057647995232 -4.004276161537056e-16 -26.450336280694
    vertex -31.74111691987392 10.99619684237534 -29.9430317717266
    vertex -26.45033642099889 -3.448398497676816e-15 -36.40576469758573
  endloop
endfacet
facet normal -0.0634547 0.156119 -0.985698
  outer loop
    vertex 2.755455298081545e-15 -8.266365894244635e-15 -45
    vertex -9.786054192384521 9.770824469886822 -42.82247228409839
    vertex 3.472076232320604e-15 13.90576478007463 -42.79754322249392
  endloop
endfacet
facet normal -0.923706 0.146176 -0.354119
  outer loop
    vertex -42.79754324717794 2.686739899715915e-15 -13.90576470410505
    vertex -42.7006839407377 10.08798678482829 -9.994204001437806
    vertex -38.60483831344367 11.27193667260786 -20.18935121398381
  endloop
endfacet
facet normal -0.0684498 0.888917 -0.452926
  outer loop
    vertex 3.848826149809544e-15 36.40576479644169 -26.45033628493533
    vertex -9.675003395357987 37.28048480295995 -23.27143661564717
    vertex 3.472076229326551e-15 42.79754324602812 -13.90576470764384
  endloop
endfacet
facet normal -0.156121 0.0633108 -0.985707
  outer loop
    vertex -13.90576478308375 -6.1588161145101e-15 -42.79754322151621
    vertex -9.786054192384521 9.770824469886822 -42.82247228409839
    vertex 2.755455298081545e-15 -8.266365894244635e-15 -45
  endloop
endfacet
facet normal -0.924445 0.353137 -0.143857
  outer loop
    vertex -42.79754324717794 13.90576470410505 0
    vertex -38.91320976199888 19.25209109839463 -11.83719115152704
    vertex -42.7006839407377 10.08798678482829 -9.994204001437806
  endloop
endfacet
facet normal -0.168894 0.593546 -0.786878
  outer loop
    vertex 3.84882615200284e-15 26.45033641592188 -36.4057647012744
    vertex -11.06991267860301 20.58471921223505 -38.45421131997827
    vertex -12.1417752404327 30.63965813097681 -30.63965802073649
  endloop
endfacet
facet normal -0.768405 0.549505 -0.328021
  outer loop
    vertex -30.63965813553286 30.63965801674892 -12.14177523899816
    vertex -32.66255344258451 22.15378308438146 -21.61868399464881
    vertex -38.91320976199888 19.25209109839463 -11.83719115152704
  endloop
endfacet
facet normal -0.805115 0.16014 -0.571091
  outer loop
    vertex -38.60483831344367 11.27193667260786 -20.18935121398381
    vertex -31.74111691987392 10.99619684237534 -29.9430317717266
    vertex -36.4057647995232 -4.004276161537056e-16 -26.450336280694
  endloop
endfacet
facet normal -0.0363468 0.987036 -0.156331
  outer loop
    vertex 3.472076229326551e-15 42.79754324602812 -13.90576470764384
    vertex -8.624442547900529 43.31984510752078 -8.602907101577397
    vertex 2.755455298081545e-15 45 0
  endloop
endfacet
facet normal -0.156333 0.987046 -0.0360468
  outer loop
    vertex 2.755455298081545e-15 45 0
    vertex -8.624442547900529 43.31984510752078 -8.602907101577397
    vertex -13.90576478308375 42.79754322151621 0
  endloop
endfacet
facet normal -0.564158 0.745848 -0.354171
  outer loop
    vertex -30.63965813553286 30.63965801674892 -12.14177523899816
    vertex -23.69659516826516 36.94728753936874 -9.918130918401896
    vertex -21.30486672034265 33.1412429585217 -21.7430602536228
  endloop
endfacet
facet normal -0.763021 0.344857 -0.546692
  outer loop
    vertex -38.60483831344367 11.27193667260786 -20.18935121398381
    vertex -32.66255344258451 22.15378308438146 -21.61868399464881
    vertex -31.74111691987392 10.99619684237534 -29.9430317717266
  endloop
endfacet
facet normal -0.147775 0.3553 -0.922998
  outer loop
    vertex 3.472076232320604e-15 13.90576478007463 -42.79754322249392
    vertex -9.786054192384521 9.770824469886822 -42.82247228409839
    vertex -11.06991267860301 20.58471921223505 -38.45421131997827
  endloop
endfacet
facet normal -0.352679 0.146344 -0.92423
  outer loop
    vertex -20.02367868966154 11.36757965282815 -38.66303692895582
    vertex -9.786054192384521 9.770824469886822 -42.82247228409839
    vertex -13.90576478308375 -6.1588161145101e-15 -42.79754322151621
  endloop
endfacet
facet normal -0.985268 0.0699679 -0.156051
  outer loop
    vertex -45 5.51091059616309e-15 0
    vertex -42.7006839407377 10.08798678482829 -9.994204001437806
    vertex -42.79754324717794 2.686739899715915e-15 -13.90576470410505
  endloop
endfacet
facet normal -0.140556 0.75839 -0.636465
  outer loop
    vertex -12.1417752404327 30.63965813097681 -30.63965802073649
    vertex -9.675003395357987 37.28048480295995 -23.27143661564717
    vertex 3.848826149809544e-15 36.40576479644169 -26.45033628493533
  endloop
endfacet
facet normal -0.985323 0.15606 -0.069164
  outer loop
    vertex -42.79754324717794 13.90576470410505 0
    vertex -42.7006839407377 10.08798678482829 -9.994204001437806
    vertex -45 5.51091059616309e-15 0
  endloop
endfacet
facet normal -0.641699 0.754628 -0.136964
  outer loop
    vertex -26.45033642099889 36.40576469758573 0
    vertex -23.69659516826516 36.94728753936874 -9.918130918401896
    vertex -30.63965813553286 30.63965801674892 -12.14177523899816
  endloop
endfacet
facet normal -0.341747 0.752136 -0.563473
  outer loop
    vertex -21.30486672034265 33.1412429585217 -21.7430602536228
    vertex -9.675003395357987 37.28048480295995 -23.27143661564717
    vertex -12.1417752404327 30.63965813097681 -30.63965802073649
  endloop
endfacet
facet normal -0.468281 0.809072 -0.355128
  outer loop
    vertex -21.30486672034265 33.1412429585217 -21.7430602536228
    vertex -23.69659516826516 36.94728753936874 -9.918130918401896
    vertex -15.25199475514963 39.49371230433513 -15.25199476826873
  endloop
endfacet
facet normal -0.3503 0.811572 -0.467591
  outer loop
    vertex -15.25199475514963 39.49371230433513 -15.25199476826873
    vertex -9.675003395357987 37.28048480295995 -23.27143661564717
    vertex -21.30486672034265 33.1412429585217 -21.7430602536228
  endloop
endfacet
facet normal -0.312377 0.323685 -0.893112
  outer loop
    vertex -11.06991267860301 20.58471921223505 -38.45421131997827
    vertex -9.786054192384521 9.770824469886822 -42.82247228409839
    vertex -20.02367868966154 11.36757965282815 -38.66303692895582
  endloop
endfacet
facet normal -0.822654 0.395593 -0.408346
  outer loop
    vertex -38.91320976199888 19.25209109839463 -11.83719115152704
    vertex -32.66255344258451 22.15378308438146 -21.61868399464881
    vertex -38.60483831344367 11.27193667260786 -20.18935121398381
  endloop
endfacet
endsolid Created by Gmsh
