solid Created by Gmsh
facet normal 1 0 0
  outer loop
    vertex 0 -100 -100
    vertex 0 -70 -100
    vertex 0 -100 100
  endloop
endfacet
facet normal 1 -0 0
  outer loop
    vertex 0 -100 100
    vertex 0 -70 -100
    vertex 0 -70 100
  endloop
endfacet
facet normal 0 1 0
  outer loop
    vertex 0 -70 100
    vertex -50.00000004270026 -70 -0.9370651636509137
    vertex -100 -70 100
  endloop
endfacet
facet normal 0 1 0
  outer loop
    vertex -100 -70 -100
    vertex -50.00000004270026 -70 -0.9370651636509137
    vertex 0 -70 -100
  endloop
endfacet
facet normal 0 1 -0
  outer loop
    vertex 0 -70 -100
    vertex -50.00000004270026 -70 -0.9370651636509137
    vertex 0 -70 100
  endloop
endfacet
facet normal 0 1 0
  outer loop
    vertex -100 -70 100
    vertex -50.00000004270026 -70 -0.9370651636509137
    vertex -100 -70 -100
  endloop
endfacet
endsolid Created by Gmsh
