solid Created by Gmsh
facet normal 0 -1 0
  outer loop
    vertex -100 90 100
    vertex 0 90 0
    vertex 100 90 100
  endloop
endfacet
facet normal 0 -1 -0
  outer loop
    vertex 100 90 100
    vertex 0 90 0
    vertex 100 90 -100
  endloop
endfacet
facet normal 0 -1 0
  outer loop
    vertex -100 90 -100
    vertex 0 90 0
    vertex -100 90 100
  endloop
endfacet
facet normal 0 -1 0
  outer loop
    vertex 100 90 -100
    vertex 0 90 0
    vertex -100 90 -100
  endloop
endfacet
endsolid Created by Gmsh
