solid Created by Gmsh
facet normal 0 0 -1
  outer loop
    vertex 100 -100 90
    vertex 0 0 90
    vertex 100 100 90
  endloop
endfacet
facet normal -0 0 -1
  outer loop
    vertex 100 100 90
    vertex 0 0 90
    vertex -100 100 90
  endloop
endfacet
facet normal 0 0 -1
  outer loop
    vertex -100 -100 90
    vertex 0 0 90
    vertex 100 -100 90
  endloop
endfacet
facet normal 0 0 -1
  outer loop
    vertex -100 100 90
    vertex 0 0 90
    vertex -100 -100 90
  endloop
endfacet
endsolid Created by Gmsh
