solid Created by Gmsh
facet normal 0 0 1
  outer loop
    vertex -13.30808360779129 -7.43834908205568 -95
    vertex -17.49999999992228 0 -95
    vertex -24.08140475595606 -9.491004716730274 -95
  endloop
endfacet
facet normal 0 0 1
  outer loop
    vertex -26.24999999996079 0 -95
    vertex -33.80740391387184 -9.058666601896951 -95
    vertex -24.08140475595606 -9.491004716730274 -95
  endloop
endfacet
facet normal 0 -0 1
  outer loop
    vertex -9.058666552222908 -33.80740392718196 -95
    vertex 0 -26.24999999996079 -95
    vertex -9.815901009274247 -26.5922642564981 -95
  endloop
endfacet
facet normal 0 -0 1
  outer loop
    vertex -15.64985784661149 -21.36654100468433 -95
    vertex -8.209774432874562 -13.71014449436539 -95
    vertex -17.69744834481455 -13.72116060933645 -95
  endloop
endfacet
facet normal 0 0 1
  outer loop
    vertex -17.49999999992228 0 -95
    vertex -26.24999999996079 0 -95
    vertex -24.08140475595606 -9.491004716730274 -95
  endloop
endfacet
facet normal 0 -0 1
  outer loop
    vertex -33.80740391387184 -9.058666601896951 -95
    vertex -26.24999999996079 0 -95
    vertex -35 0 -95
  endloop
endfacet
facet normal 0 0 1
  outer loop
    vertex 0 -26.24999999996079 -95
    vertex -9.058666552222908 -33.80740392718196 -95
    vertex 0 -35 -95
  endloop
endfacet
facet normal 0 0 1
  outer loop
    vertex -15.64985784661149 -21.36654100468433 -95
    vertex -6.870980690117827 -21.22648719362387 -95
    vertex -8.209774432874562 -13.71014449436539 -95
  endloop
endfacet
facet normal 0 0 1
  outer loop
    vertex 0 -26.24999999996079 -95
    vertex -6.870980690117827 -21.22648719362387 -95
    vertex -9.815901009274247 -26.5922642564981 -95
  endloop
endfacet
facet normal 0 0 1
  outer loop
    vertex -13.30808360779129 -7.43834908205568 -95
    vertex -24.08140475595606 -9.491004716730274 -95
    vertex -17.69744834481455 -13.72116060933645 -95
  endloop
endfacet
facet normal 0 0 1
  outer loop
    vertex -33.80740391387184 -9.058666601896951 -95
    vertex -30.31088910721643 -17.50000004371509 -95
    vertex -24.08140475595606 -9.491004716730274 -95
  endloop
endfacet
facet normal 0 0 1
  outer loop
    vertex -8.209774432874562 -13.71014449436539 -95
    vertex -13.30808360779129 -7.43834908205568 -95
    vertex -17.69744834481455 -13.72116060933645 -95
  endloop
endfacet
facet normal -0 0 1
  outer loop
    vertex -24.74873728671554 -24.74873739634279 -95
    vertex -17.499999957419 -30.3108891570395 -95
    vertex -15.64985784661149 -21.36654100468433 -95
  endloop
endfacet
facet normal 0 0 1
  outer loop
    vertex -8.749999999971159 0 -95
    vertex -17.49999999992228 0 -95
    vertex -13.30808360779129 -7.43834908205568 -95
  endloop
endfacet
facet normal 0 -0 1
  outer loop
    vertex 0 -26.24999999996079 -95
    vertex 0 -17.49999999992228 -95
    vertex -6.870980690117827 -21.22648719362387 -95
  endloop
endfacet
facet normal 0 -0 1
  outer loop
    vertex 0 -17.49999999992228 -95
    vertex 0 -8.749999999971159 -95
    vertex -8.209774432874562 -13.71014449436539 -95
  endloop
endfacet
facet normal 0 0 1
  outer loop
    vertex -24.08140475595606 -9.491004716730274 -95
    vertex -30.31088910721643 -17.50000004371509 -95
    vertex -22.73263432025755 -17.51652194056645 -95
  endloop
endfacet
facet normal 0 -0 1
  outer loop
    vertex -6.870980690117827 -21.22648719362387 -95
    vertex 0 -17.49999999992228 -95
    vertex -8.209774432874562 -13.71014449436539 -95
  endloop
endfacet
facet normal 0 -0 1
  outer loop
    vertex 0 -8.749999999971159 -95
    vertex 0 0 -95
    vertex -6.405444566199227 -6.405444566199229 -95
  endloop
endfacet
facet normal 0 0 1
  outer loop
    vertex 0 0 -95
    vertex -8.749999999971159 0 -95
    vertex -6.405444566199227 -6.405444566199229 -95
  endloop
endfacet
facet normal 0 0 1
  outer loop
    vertex -24.74873728671554 -24.74873739634279 -95
    vertex -15.64985784661149 -21.36654100468433 -95
    vertex -22.73263432025755 -17.51652194056645 -95
  endloop
endfacet
facet normal 0 0 1
  outer loop
    vertex -15.64985784661149 -21.36654100468433 -95
    vertex -17.499999957419 -30.3108891570395 -95
    vertex -9.815901009274247 -26.5922642564981 -95
  endloop
endfacet
facet normal 0 0 1
  outer loop
    vertex -8.209774432874562 -13.71014449436539 -95
    vertex 0 -8.749999999971159 -95
    vertex -6.405444566199227 -6.405444566199229 -95
  endloop
endfacet
facet normal 0 0 1
  outer loop
    vertex -6.870980690117827 -21.22648719362387 -95
    vertex -15.64985784661149 -21.36654100468433 -95
    vertex -9.815901009274247 -26.5922642564981 -95
  endloop
endfacet
facet normal 0 0 1
  outer loop
    vertex -30.31088910721643 -17.50000004371509 -95
    vertex -24.74873728671554 -24.74873739634279 -95
    vertex -22.73263432025755 -17.51652194056645 -95
  endloop
endfacet
facet normal 0 0 1
  outer loop
    vertex -8.749999999971159 0 -95
    vertex -13.30808360779129 -7.43834908205568 -95
    vertex -6.405444566199227 -6.405444566199229 -95
  endloop
endfacet
facet normal -0 0 1
  outer loop
    vertex -17.499999957419 -30.3108891570395 -95
    vertex -9.058666552222908 -33.80740392718196 -95
    vertex -9.815901009274247 -26.5922642564981 -95
  endloop
endfacet
facet normal 0 0 1
  outer loop
    vertex -17.69744834481455 -13.72116060933645 -95
    vertex -24.08140475595606 -9.491004716730274 -95
    vertex -22.73263432025755 -17.51652194056645 -95
  endloop
endfacet
facet normal -0 0 1
  outer loop
    vertex -13.30808360779129 -7.43834908205568 -95
    vertex -8.209774432874562 -13.71014449436539 -95
    vertex -6.405444566199227 -6.405444566199229 -95
  endloop
endfacet
facet normal 0 0 1
  outer loop
    vertex -15.64985784661149 -21.36654100468433 -95
    vertex -17.69744834481455 -13.72116060933645 -95
    vertex -22.73263432025755 -17.51652194056645 -95
  endloop
endfacet
facet normal 0 0 1
  outer loop
    vertex 7.43834908205568 -13.30808360779129 -95
    vertex 0 -17.49999999992228 -95
    vertex 9.491004716730274 -24.08140475595606 -95
  endloop
endfacet
facet normal -0 0 1
  outer loop
    vertex 0 -26.24999999996079 -95
    vertex 9.058666601896951 -33.80740391387184 -95
    vertex 9.491004716730274 -24.08140475595606 -95
  endloop
endfacet
facet normal 0 0 1
  outer loop
    vertex 33.80740392718196 -9.058666552222908 -95
    vertex 26.24999999996079 0 -95
    vertex 26.5922642564981 -9.815901009274247 -95
  endloop
endfacet
facet normal 0 0 1
  outer loop
    vertex 21.36654100468433 -15.64985784661149 -95
    vertex 13.71014449436539 -8.209774432874562 -95
    vertex 13.72116060933645 -17.69744834481455 -95
  endloop
endfacet
facet normal 0 0 1
  outer loop
    vertex 0 -17.49999999992228 -95
    vertex 0 -26.24999999996079 -95
    vertex 9.491004716730274 -24.08140475595606 -95
  endloop
endfacet
facet normal 0 0 1
  outer loop
    vertex 9.058666601896951 -33.80740391387184 -95
    vertex 0 -26.24999999996079 -95
    vertex 0 -35 -95
  endloop
endfacet
facet normal 0 -0 1
  outer loop
    vertex 33.80740392718196 -9.058666552222908 -95
    vertex 35 0 -95
    vertex 26.24999999996079 0 -95
  endloop
endfacet
facet normal 0 0 1
  outer loop
    vertex 21.36654100468433 -15.64985784661149 -95
    vertex 21.22648719362387 -6.870980690117827 -95
    vertex 13.71014449436539 -8.209774432874562 -95
  endloop
endfacet
facet normal 0 0 1
  outer loop
    vertex 26.24999999996079 0 -95
    vertex 21.22648719362387 -6.870980690117827 -95
    vertex 26.5922642564981 -9.815901009274247 -95
  endloop
endfacet
facet normal 0 0 1
  outer loop
    vertex 7.43834908205568 -13.30808360779129 -95
    vertex 9.491004716730274 -24.08140475595606 -95
    vertex 13.72116060933645 -17.69744834481455 -95
  endloop
endfacet
facet normal 0 0 1
  outer loop
    vertex 9.058666601896951 -33.80740391387184 -95
    vertex 17.50000004371509 -30.31088910721643 -95
    vertex 9.491004716730274 -24.08140475595606 -95
  endloop
endfacet
facet normal 0 0 1
  outer loop
    vertex 13.71014449436539 -8.209774432874562 -95
    vertex 7.43834908205568 -13.30808360779129 -95
    vertex 13.72116060933645 -17.69744834481455 -95
  endloop
endfacet
facet normal 0 -0 1
  outer loop
    vertex 24.74873739634279 -24.74873728671554 -95
    vertex 30.3108891570395 -17.499999957419 -95
    vertex 21.36654100468433 -15.64985784661149 -95
  endloop
endfacet
facet normal 0 0 1
  outer loop
    vertex 0 -8.749999999971159 -95
    vertex 0 -17.49999999992228 -95
    vertex 7.43834908205568 -13.30808360779129 -95
  endloop
endfacet
facet normal 0 0 1
  outer loop
    vertex 26.24999999996079 0 -95
    vertex 17.49999999992228 0 -95
    vertex 21.22648719362387 -6.870980690117827 -95
  endloop
endfacet
facet normal 0 0 1
  outer loop
    vertex 17.49999999992228 0 -95
    vertex 8.749999999971159 0 -95
    vertex 13.71014449436539 -8.209774432874562 -95
  endloop
endfacet
facet normal -0 0 1
  outer loop
    vertex 9.491004716730274 -24.08140475595606 -95
    vertex 17.50000004371509 -30.31088910721643 -95
    vertex 17.51652194056645 -22.73263432025755 -95
  endloop
endfacet
facet normal 0 0 1
  outer loop
    vertex 21.22648719362387 -6.870980690117827 -95
    vertex 17.49999999992228 0 -95
    vertex 13.71014449436539 -8.209774432874562 -95
  endloop
endfacet
facet normal 0 0 1
  outer loop
    vertex 8.749999999971159 0 -95
    vertex 0 0 -95
    vertex 6.405444566199229 -6.405444566199227 -95
  endloop
endfacet
facet normal 0 0 1
  outer loop
    vertex 0 0 -95
    vertex 0 -8.749999999971159 -95
    vertex 6.405444566199229 -6.405444566199227 -95
  endloop
endfacet
facet normal 0 0 1
  outer loop
    vertex 24.74873739634279 -24.74873728671554 -95
    vertex 21.36654100468433 -15.64985784661149 -95
    vertex 17.51652194056645 -22.73263432025755 -95
  endloop
endfacet
facet normal -0 0 1
  outer loop
    vertex 21.36654100468433 -15.64985784661149 -95
    vertex 30.3108891570395 -17.499999957419 -95
    vertex 26.5922642564981 -9.815901009274247 -95
  endloop
endfacet
facet normal 0 0 1
  outer loop
    vertex 13.71014449436539 -8.209774432874562 -95
    vertex 8.749999999971159 0 -95
    vertex 6.405444566199229 -6.405444566199227 -95
  endloop
endfacet
facet normal 0 0 1
  outer loop
    vertex 21.22648719362387 -6.870980690117827 -95
    vertex 21.36654100468433 -15.64985784661149 -95
    vertex 26.5922642564981 -9.815901009274247 -95
  endloop
endfacet
facet normal 0 0 1
  outer loop
    vertex 17.50000004371509 -30.31088910721643 -95
    vertex 24.74873739634279 -24.74873728671554 -95
    vertex 17.51652194056645 -22.73263432025755 -95
  endloop
endfacet
facet normal -0 0 1
  outer loop
    vertex 0 -8.749999999971159 -95
    vertex 7.43834908205568 -13.30808360779129 -95
    vertex 6.405444566199229 -6.405444566199227 -95
  endloop
endfacet
facet normal 0 -0 1
  outer loop
    vertex 30.3108891570395 -17.499999957419 -95
    vertex 33.80740392718196 -9.058666552222908 -95
    vertex 26.5922642564981 -9.815901009274247 -95
  endloop
endfacet
facet normal 0 0 1
  outer loop
    vertex 13.72116060933645 -17.69744834481455 -95
    vertex 9.491004716730274 -24.08140475595606 -95
    vertex 17.51652194056645 -22.73263432025755 -95
  endloop
endfacet
facet normal 0 -0 1
  outer loop
    vertex 7.43834908205568 -13.30808360779129 -95
    vertex 13.71014449436539 -8.209774432874562 -95
    vertex 6.405444566199229 -6.405444566199227 -95
  endloop
endfacet
facet normal 0 0 1
  outer loop
    vertex 21.36654100468433 -15.64985784661149 -95
    vertex 13.72116060933645 -17.69744834481455 -95
    vertex 17.51652194056645 -22.73263432025755 -95
  endloop
endfacet
facet normal -0 0 1
  outer loop
    vertex 13.30808360779129 7.43834908205568 -95
    vertex 17.49999999992228 0 -95
    vertex 24.08140475595606 9.491004716730274 -95
  endloop
endfacet
facet normal 0 -0 1
  outer loop
    vertex 26.24999999996079 0 -95
    vertex 33.80740391387184 9.058666601896951 -95
    vertex 24.08140475595606 9.491004716730274 -95
  endloop
endfacet
facet normal 0 0 1
  outer loop
    vertex 9.058666552222908 33.80740392718196 -95
    vertex 0 26.24999999996079 -95
    vertex 9.815901009274247 26.5922642564981 -95
  endloop
endfacet
facet normal 0 0 1
  outer loop
    vertex 15.64985784661149 21.36654100468433 -95
    vertex 8.209774432874562 13.71014449436539 -95
    vertex 17.69744834481455 13.72116060933645 -95
  endloop
endfacet
facet normal 0 0 1
  outer loop
    vertex 17.49999999992228 0 -95
    vertex 26.24999999996079 0 -95
    vertex 24.08140475595606 9.491004716730274 -95
  endloop
endfacet
facet normal 0 0 1
  outer loop
    vertex 33.80740391387184 9.058666601896951 -95
    vertex 26.24999999996079 0 -95
    vertex 35 0 -95
  endloop
endfacet
facet normal 0 0 1
  outer loop
    vertex 0 26.24999999996079 -95
    vertex 9.058666552222908 33.80740392718196 -95
    vertex 0 35 -95
  endloop
endfacet
facet normal 0 0 1
  outer loop
    vertex 15.64985784661149 21.36654100468433 -95
    vertex 6.870980690117827 21.22648719362387 -95
    vertex 8.209774432874562 13.71014449436539 -95
  endloop
endfacet
facet normal -0 0 1
  outer loop
    vertex 0 26.24999999996079 -95
    vertex 6.870980690117827 21.22648719362387 -95
    vertex 9.815901009274247 26.5922642564981 -95
  endloop
endfacet
facet normal 0 0 1
  outer loop
    vertex 13.30808360779129 7.43834908205568 -95
    vertex 24.08140475595606 9.491004716730274 -95
    vertex 17.69744834481455 13.72116060933645 -95
  endloop
endfacet
facet normal 0 0 1
  outer loop
    vertex 33.80740391387184 9.058666601896951 -95
    vertex 30.31088910721643 17.50000004371509 -95
    vertex 24.08140475595606 9.491004716730274 -95
  endloop
endfacet
facet normal -0 0 1
  outer loop
    vertex 8.209774432874562 13.71014449436539 -95
    vertex 13.30808360779129 7.43834908205568 -95
    vertex 17.69744834481455 13.72116060933645 -95
  endloop
endfacet
facet normal 0 0 1
  outer loop
    vertex 24.74873728671554 24.74873739634279 -95
    vertex 17.499999957419 30.3108891570395 -95
    vertex 15.64985784661149 21.36654100468433 -95
  endloop
endfacet
facet normal 0 0 1
  outer loop
    vertex 8.749999999971159 0 -95
    vertex 17.49999999992228 0 -95
    vertex 13.30808360779129 7.43834908205568 -95
  endloop
endfacet
facet normal 0 0 1
  outer loop
    vertex 0 26.24999999996079 -95
    vertex 0 17.49999999992228 -95
    vertex 6.870980690117827 21.22648719362387 -95
  endloop
endfacet
facet normal 0 0 1
  outer loop
    vertex 0 17.49999999992228 -95
    vertex 0 8.749999999971159 -95
    vertex 8.209774432874562 13.71014449436539 -95
  endloop
endfacet
facet normal 0 -0 1
  outer loop
    vertex 24.08140475595606 9.491004716730274 -95
    vertex 30.31088910721643 17.50000004371509 -95
    vertex 22.73263432025755 17.51652194056645 -95
  endloop
endfacet
facet normal 0 0 1
  outer loop
    vertex 6.870980690117827 21.22648719362387 -95
    vertex 0 17.49999999992228 -95
    vertex 8.209774432874562 13.71014449436539 -95
  endloop
endfacet
facet normal 0 0 1
  outer loop
    vertex 0 8.749999999971159 -95
    vertex 0 0 -95
    vertex 6.405444566199227 6.405444566199229 -95
  endloop
endfacet
facet normal 0 0 1
  outer loop
    vertex 0 0 -95
    vertex 8.749999999971159 0 -95
    vertex 6.405444566199227 6.405444566199229 -95
  endloop
endfacet
facet normal 0 0 1
  outer loop
    vertex 24.74873728671554 24.74873739634279 -95
    vertex 15.64985784661149 21.36654100468433 -95
    vertex 22.73263432025755 17.51652194056645 -95
  endloop
endfacet
facet normal 0 -0 1
  outer loop
    vertex 15.64985784661149 21.36654100468433 -95
    vertex 17.499999957419 30.3108891570395 -95
    vertex 9.815901009274247 26.5922642564981 -95
  endloop
endfacet
facet normal 0 0 1
  outer loop
    vertex 8.209774432874562 13.71014449436539 -95
    vertex 0 8.749999999971159 -95
    vertex 6.405444566199227 6.405444566199229 -95
  endloop
endfacet
facet normal 0 0 1
  outer loop
    vertex 6.870980690117827 21.22648719362387 -95
    vertex 15.64985784661149 21.36654100468433 -95
    vertex 9.815901009274247 26.5922642564981 -95
  endloop
endfacet
facet normal 0 0 1
  outer loop
    vertex 30.31088910721643 17.50000004371509 -95
    vertex 24.74873728671554 24.74873739634279 -95
    vertex 22.73263432025755 17.51652194056645 -95
  endloop
endfacet
facet normal 0 -0 1
  outer loop
    vertex 8.749999999971159 0 -95
    vertex 13.30808360779129 7.43834908205568 -95
    vertex 6.405444566199227 6.405444566199229 -95
  endloop
endfacet
facet normal 0 0 1
  outer loop
    vertex 17.499999957419 30.3108891570395 -95
    vertex 9.058666552222908 33.80740392718196 -95
    vertex 9.815901009274247 26.5922642564981 -95
  endloop
endfacet
facet normal -0 0 1
  outer loop
    vertex 17.69744834481455 13.72116060933645 -95
    vertex 24.08140475595606 9.491004716730274 -95
    vertex 22.73263432025755 17.51652194056645 -95
  endloop
endfacet
facet normal 0 0 1
  outer loop
    vertex 13.30808360779129 7.43834908205568 -95
    vertex 8.209774432874562 13.71014449436539 -95
    vertex 6.405444566199227 6.405444566199229 -95
  endloop
endfacet
facet normal 0 0 1
  outer loop
    vertex 15.64985784661149 21.36654100468433 -95
    vertex 17.69744834481455 13.72116060933645 -95
    vertex 22.73263432025755 17.51652194056645 -95
  endloop
endfacet
facet normal 0 -0 1
  outer loop
    vertex -7.43834908205568 13.30808360779129 -95
    vertex 0 17.49999999992228 -95
    vertex -9.491004716730274 24.08140475595606 -95
  endloop
endfacet
facet normal 0 0 1
  outer loop
    vertex 0 26.24999999996079 -95
    vertex -9.058666601896951 33.80740391387184 -95
    vertex -9.491004716730274 24.08140475595606 -95
  endloop
endfacet
facet normal -0 0 1
  outer loop
    vertex -33.80740392718196 9.058666552222908 -95
    vertex -26.24999999996079 0 -95
    vertex -26.5922642564981 9.815901009274247 -95
  endloop
endfacet
facet normal -0 0 1
  outer loop
    vertex -21.36654100468433 15.64985784661149 -95
    vertex -13.71014449436539 8.209774432874562 -95
    vertex -13.72116060933645 17.69744834481455 -95
  endloop
endfacet
facet normal 0 -0 1
  outer loop
    vertex 0 17.49999999992228 -95
    vertex 0 26.24999999996079 -95
    vertex -9.491004716730274 24.08140475595606 -95
  endloop
endfacet
facet normal 0 0 1
  outer loop
    vertex 0 35 -95
    vertex -9.058666601896951 33.80740391387184 -95
    vertex 0 26.24999999996079 -95
  endloop
endfacet
facet normal 0 0 1
  outer loop
    vertex -26.24999999996079 0 -95
    vertex -33.80740392718196 9.058666552222908 -95
    vertex -35 0 -95
  endloop
endfacet
facet normal 0 0 1
  outer loop
    vertex -21.36654100468433 15.64985784661149 -95
    vertex -21.22648719362387 6.870980690117827 -95
    vertex -13.71014449436539 8.209774432874562 -95
  endloop
endfacet
facet normal 0 -0 1
  outer loop
    vertex -26.24999999996079 0 -95
    vertex -21.22648719362387 6.870980690117827 -95
    vertex -26.5922642564981 9.815901009274247 -95
  endloop
endfacet
facet normal 0 0 1
  outer loop
    vertex -7.43834908205568 13.30808360779129 -95
    vertex -9.491004716730274 24.08140475595606 -95
    vertex -13.72116060933645 17.69744834481455 -95
  endloop
endfacet
facet normal 0 0 1
  outer loop
    vertex -9.058666601896951 33.80740391387184 -95
    vertex -17.50000004371509 30.31088910721643 -95
    vertex -9.491004716730274 24.08140475595606 -95
  endloop
endfacet
facet normal 0 -0 1
  outer loop
    vertex -13.71014449436539 8.209774432874562 -95
    vertex -7.43834908205568 13.30808360779129 -95
    vertex -13.72116060933645 17.69744834481455 -95
  endloop
endfacet
facet normal 0 0 1
  outer loop
    vertex -24.74873739634279 24.74873728671554 -95
    vertex -30.3108891570395 17.499999957419 -95
    vertex -21.36654100468433 15.64985784661149 -95
  endloop
endfacet
facet normal 0 -0 1
  outer loop
    vertex 0 8.749999999971159 -95
    vertex 0 17.49999999992228 -95
    vertex -7.43834908205568 13.30808360779129 -95
  endloop
endfacet
facet normal 0 0 1
  outer loop
    vertex -26.24999999996079 0 -95
    vertex -17.49999999992228 0 -95
    vertex -21.22648719362387 6.870980690117827 -95
  endloop
endfacet
facet normal 0 0 1
  outer loop
    vertex -17.49999999992228 0 -95
    vertex -8.749999999971159 0 -95
    vertex -13.71014449436539 8.209774432874562 -95
  endloop
endfacet
facet normal 0 0 1
  outer loop
    vertex -9.491004716730274 24.08140475595606 -95
    vertex -17.50000004371509 30.31088910721643 -95
    vertex -17.51652194056645 22.73263432025755 -95
  endloop
endfacet
facet normal -0 0 1
  outer loop
    vertex -21.22648719362387 6.870980690117827 -95
    vertex -17.49999999992228 0 -95
    vertex -13.71014449436539 8.209774432874562 -95
  endloop
endfacet
facet normal 0 0 1
  outer loop
    vertex -8.749999999971159 0 -95
    vertex 0 0 -95
    vertex -6.405444566199229 6.405444566199227 -95
  endloop
endfacet
facet normal 0 -0 1
  outer loop
    vertex 0 0 -95
    vertex 0 8.749999999971159 -95
    vertex -6.405444566199229 6.405444566199227 -95
  endloop
endfacet
facet normal 0 0 1
  outer loop
    vertex -24.74873739634279 24.74873728671554 -95
    vertex -21.36654100468433 15.64985784661149 -95
    vertex -17.51652194056645 22.73263432025755 -95
  endloop
endfacet
facet normal 0 0 1
  outer loop
    vertex -21.36654100468433 15.64985784661149 -95
    vertex -30.3108891570395 17.499999957419 -95
    vertex -26.5922642564981 9.815901009274247 -95
  endloop
endfacet
facet normal 0 0 1
  outer loop
    vertex -13.71014449436539 8.209774432874562 -95
    vertex -8.749999999971159 0 -95
    vertex -6.405444566199229 6.405444566199227 -95
  endloop
endfacet
facet normal 0 0 1
  outer loop
    vertex -21.22648719362387 6.870980690117827 -95
    vertex -21.36654100468433 15.64985784661149 -95
    vertex -26.5922642564981 9.815901009274247 -95
  endloop
endfacet
facet normal 0 0 1
  outer loop
    vertex -17.50000004371509 30.31088910721643 -95
    vertex -24.74873739634279 24.74873728671554 -95
    vertex -17.51652194056645 22.73263432025755 -95
  endloop
endfacet
facet normal 0 0 1
  outer loop
    vertex 0 8.749999999971159 -95
    vertex -7.43834908205568 13.30808360779129 -95
    vertex -6.405444566199229 6.405444566199227 -95
  endloop
endfacet
facet normal 0 0 1
  outer loop
    vertex -30.3108891570395 17.499999957419 -95
    vertex -33.80740392718196 9.058666552222908 -95
    vertex -26.5922642564981 9.815901009274247 -95
  endloop
endfacet
facet normal 0 -0 1
  outer loop
    vertex -13.72116060933645 17.69744834481455 -95
    vertex -9.491004716730274 24.08140475595606 -95
    vertex -17.51652194056645 22.73263432025755 -95
  endloop
endfacet
facet normal 0 0 1
  outer loop
    vertex -7.43834908205568 13.30808360779129 -95
    vertex -13.71014449436539 8.209774432874562 -95
    vertex -6.405444566199229 6.405444566199227 -95
  endloop
endfacet
facet normal 0 0 1
  outer loop
    vertex -21.36654100468433 15.64985784661149 -95
    vertex -13.72116060933645 17.69744834481455 -95
    vertex -17.51652194056645 22.73263432025755 -95
  endloop
endfacet
endsolid Created by Gmsh
